<svg width="619" height="296" viewBox="0 0 619 296" fill="none" xmlns="http://www.w3.org/2000/svg">
<rect width="619" height="296" fill="white"/>
<path d="M350 152L362 253" stroke="black" stroke-opacity="0.5" stroke-dasharray="2 2"/>
<path d="M350 152L354.589 141.404L343.118 142.728L350 152ZM343.007 100.115L347.975 143.174L349.962 142.945L344.993 99.8854L343.007 100.115Z" fill="#EE2626"/>
<line x1="55.5" y1="122.718" x2="55.5" y2="129.718" stroke="black"/>
<line x1="59" y1="126.218" x2="52" y2="126.218" stroke="black"/>
<line x1="343.5" y1="96.718" x2="343.5" y2="103.718" stroke="black"/>
<line x1="347" y1="100.218" x2="340" y2="100.218" stroke="black"/>
<line x1="412.5" y1="104" x2="412.5" y2="111" stroke="black"/>
<line x1="416" y1="107.5" x2="409" y2="107.5" stroke="black"/>
<line x1="522.5" y1="74.0001" x2="522.5" y2="81.0001" stroke="black"/>
<line x1="526" y1="77.5001" x2="519" y2="77.5001" stroke="black"/>
<line x1="539.5" y1="139" x2="539.5" y2="146" stroke="black"/>
<line x1="543" y1="142.5" x2="536" y2="142.5" stroke="black"/>
<line x1="539.5" y1="189" x2="539.5" y2="196" stroke="black"/>
<line x1="543" y1="192.5" x2="536" y2="192.5" stroke="black"/>
<line x1="429.5" y1="219" x2="429.5" y2="226" stroke="black"/>
<line x1="433" y1="222.5" x2="426" y2="222.5" stroke="black"/>
<line x1="412.5" y1="152" x2="412.5" y2="159" stroke="black"/>
<line x1="416" y1="155.5" x2="409" y2="155.5" stroke="black"/>
<line x1="55.5" y1="175.718" x2="55.5" y2="182.718" stroke="black"/>
<line x1="59" y1="179.218" x2="52" y2="179.218" stroke="black"/>
<line x1="123.737" y1="129.748" x2="125.548" y2="136.51" stroke="black"/>
<line x1="128.023" y1="132.223" x2="121.262" y2="134.035" stroke="black"/>
<line x1="233.852" y1="100.243" x2="235.664" y2="107.004" stroke="black"/>
<line x1="238.139" y1="102.718" x2="231.377" y2="104.53" stroke="black"/>
<line x1="141.077" y1="194.465" x2="142.889" y2="201.227" stroke="black"/>
<line x1="145.364" y1="196.94" x2="138.603" y2="198.752" stroke="black"/>
<line x1="251.193" y1="164.96" x2="253.005" y2="171.721" stroke="black"/>
<line x1="255.48" y1="167.435" x2="248.718" y2="169.247" stroke="black"/>
<path d="M84.6399 116.911C86.198 120.684 87 124.727 87 128.811V179.718C87 183.801 86.198 187.845 84.6399 191.618C83.0817 195.39 80.798 198.818 77.9193 201.705C75.0405 204.592 71.6231 206.882 67.8622 208.444C64.1014 210.007 60.0706 210.811 56 210.811C51.9294 210.811 47.8986 210.007 44.1378 208.444C40.3769 206.882 36.9595 204.592 34.0807 201.705C31.202 198.818 28.9183 195.39 27.3601 191.618C25.802 187.845 25 183.801 25 179.718V128.811C25 124.727 25.802 120.684 27.3601 116.911L26.4359 116.529L27.3601 116.911C28.9183 113.139 31.202 109.711 34.0807 106.824C36.9595 103.937 40.3769 101.647 44.1378 100.084L43.7541 99.1608L44.1378 100.084C47.8986 98.5219 51.9294 97.7178 56 97.7178C60.0706 97.7178 64.1014 98.5219 67.8622 100.084C71.6231 101.647 75.0405 103.937 77.9193 106.824L78.6274 106.118L77.9193 106.824C80.798 109.711 83.0817 113.139 84.6399 116.911Z" stroke="black" stroke-width="2"/>
<line x1="55.5" y1="125.718" x2="55.5" y2="175.718" stroke="black" stroke-dasharray="4 4"/>
<rect x="102.951" y="119.789" width="149" height="105" rx="19" transform="rotate(-15 102.951 119.789)" stroke="black" stroke-width="2"/>
<rect x="124.642" y="133.129" width="114" height="67" transform="rotate(-15 124.642 133.129)" stroke="black" stroke-dasharray="4 4"/>
<path d="M67.7012 151.773H64.127L63.3242 154H62.1641L65.4219 145.469H66.4062L69.6699 154H68.5156L67.7012 151.773ZM64.4668 150.848H67.3672L65.9141 146.857L64.4668 150.848Z" fill="black"/>
<path d="M188.99 163V154.469H191.779C192.705 154.469 193.4 154.66 193.865 155.043C194.334 155.426 194.568 155.992 194.568 156.742C194.568 157.141 194.455 157.494 194.229 157.803C194.002 158.107 193.693 158.344 193.303 158.512C193.764 158.641 194.127 158.887 194.393 159.25C194.662 159.609 194.797 160.039 194.797 160.539C194.797 161.305 194.549 161.906 194.053 162.344C193.557 162.781 192.855 163 191.949 163H188.99ZM190.115 159.01V162.08H191.973C192.496 162.08 192.908 161.945 193.209 161.676C193.514 161.402 193.666 161.027 193.666 160.551C193.666 159.523 193.107 159.01 191.99 159.01H190.115ZM190.115 158.107H191.814C192.307 158.107 192.699 157.984 192.992 157.738C193.289 157.492 193.438 157.158 193.438 156.736C193.438 156.268 193.301 155.928 193.027 155.717C192.754 155.502 192.338 155.395 191.779 155.395H190.115V158.107Z" fill="black"/>
<path d="M470.701 151.774H467.127L466.324 154H465.164L468.422 145.469H469.406L472.67 154H471.516L470.701 151.774ZM467.467 150.848H470.367L468.914 146.858L467.467 150.848ZM476.754 149.424H479.133V150.449H476.754V153.145H475.664V150.449H473.285V149.424H475.664V146.934H476.754V149.424ZM480.627 154V145.469H483.416C484.342 145.469 485.037 145.66 485.502 146.043C485.971 146.426 486.205 146.992 486.205 147.742C486.205 148.141 486.092 148.494 485.865 148.803C485.639 149.108 485.33 149.344 484.939 149.512C485.4 149.641 485.764 149.887 486.029 150.25C486.299 150.609 486.434 151.039 486.434 151.539C486.434 152.305 486.186 152.906 485.689 153.344C485.193 153.781 484.492 154 483.586 154H480.627ZM481.752 150.01V153.08H483.609C484.133 153.08 484.545 152.945 484.846 152.676C485.15 152.402 485.303 152.027 485.303 151.551C485.303 150.524 484.744 150.01 483.627 150.01H481.752ZM481.752 149.108H483.451C483.943 149.108 484.336 148.984 484.629 148.738C484.926 148.492 485.074 148.158 485.074 147.736C485.074 147.268 484.938 146.928 484.664 146.717C484.391 146.502 483.975 146.395 483.416 146.395H481.752V149.108Z" fill="black"/>
<path d="M413 156V107L523 78.0001L540 143V193L429.5 222.5L413 156Z" stroke="black" stroke-dasharray="4 4"/>
<path fill-rule="evenodd" clip-rule="evenodd" d="M549.73 32.2341C561.883 39.3323 570.714 50.9732 574.275 64.5897L591.275 129.59C592.42 133.968 593 138.475 593 143V193C593 217.006 576.864 238.015 553.671 244.207L443.171 273.707C429.433 277.374 414.798 275.368 402.554 268.139C390.31 260.91 381.484 249.064 378.06 235.264L361.56 168.764C360.524 164.588 360 160.302 360 156V107C360 82.9327 376.217 61.8867 399.489 55.7512L509.489 26.7512C523.098 23.1633 537.576 25.1359 549.73 32.2341Z" stroke="black" stroke-width="2" stroke-linejoin="round"/>
<line x1="55.5" y1="126" x2="55.5" y2="179" stroke="#1ABBEE" stroke-opacity="0.5" stroke-width="7"/>
<line x1="413.5" y1="104" x2="413.5" y2="157" stroke="#1ABBEE" stroke-opacity="0.5" stroke-width="7"/>
<path d="M234 104L251.5 169" stroke="#F97F10" stroke-opacity="0.5" stroke-width="7"/>
<path d="M523 78L540.5 143" stroke="#F97F10" stroke-opacity="0.5" stroke-width="7"/>
<path d="M125 133L235 104" stroke="#F97F10" stroke-opacity="0.5" stroke-width="7"/>
<path d="M413 107L523 78.0001" stroke="#F97F10" stroke-opacity="0.5" stroke-width="7"/>
<path d="M67.8145 181.506L70.252 174.469H71.4824L68.3184 183H67.3223L64.1641 174.469H65.3887L67.8145 181.506ZM74.9663 181.701H72.8813L72.4131 183H71.7363L73.6367 178.023H74.2109L76.1147 183H75.4414L74.9663 181.701ZM73.0796 181.161H74.7715L73.9238 178.833L73.0796 181.161Z" fill="black"/>
<path d="M191.814 136.506L194.252 129.469H195.482L192.318 138H191.322L188.164 129.469H189.389L191.814 136.506ZM196.218 138V133.023H197.845C198.385 133.023 198.791 133.135 199.062 133.358C199.335 133.582 199.472 133.912 199.472 134.35C199.472 134.582 199.406 134.788 199.274 134.968C199.142 135.146 198.962 135.284 198.734 135.382C199.003 135.457 199.215 135.601 199.37 135.812C199.527 136.022 199.605 136.273 199.605 136.564C199.605 137.011 199.461 137.362 199.171 137.617C198.882 137.872 198.473 138 197.944 138H196.218ZM196.875 135.672V137.463H197.958C198.263 137.463 198.504 137.385 198.679 137.228C198.857 137.068 198.946 136.849 198.946 136.571C198.946 135.972 198.62 135.672 197.968 135.672H196.875ZM196.875 135.146H197.866C198.153 135.146 198.382 135.074 198.553 134.931C198.726 134.787 198.812 134.592 198.812 134.346C198.812 134.073 198.733 133.875 198.573 133.751C198.414 133.626 198.171 133.563 197.845 133.563H196.875V135.146Z" fill="black"/>
<path d="M326.814 140.506L329.252 133.469H330.482L327.318 142H326.322L323.164 133.469H324.389L326.814 140.506ZM333.966 140.701H331.881L331.413 142H330.736L332.637 137.023H333.211L335.115 142H334.441L333.966 140.701ZM332.08 140.161H333.771L332.924 137.833L332.08 140.161ZM335.785 142V137.023H337.412C337.952 137.023 338.357 137.135 338.628 137.358C338.902 137.582 339.039 137.912 339.039 138.35C339.039 138.582 338.972 138.788 338.84 138.968C338.708 139.146 338.528 139.284 338.3 139.382C338.569 139.457 338.781 139.601 338.936 139.812C339.093 140.022 339.172 140.273 339.172 140.564C339.172 141.011 339.027 141.362 338.738 141.617C338.448 141.872 338.039 142 337.511 142H335.785ZM336.441 139.672V141.463H337.524C337.83 141.463 338.07 141.385 338.246 141.228C338.423 141.068 338.512 140.849 338.512 140.571C338.512 139.972 338.186 139.672 337.535 139.672H336.441ZM336.441 139.146H337.432C337.719 139.146 337.948 139.074 338.119 138.931C338.292 138.787 338.379 138.592 338.379 138.346C338.379 138.073 338.299 137.875 338.14 137.751C337.98 137.626 337.737 137.563 337.412 137.563H336.441V139.146Z" fill="black"/>
<path d="M95 188L93.278 182.489L89.3666 186.736L95 188ZM56.6613 153.368L91.3513 185.319L92.0288 184.584L57.3387 152.632L56.6613 153.368Z" fill="black"/>
<path d="M212 134L206.23 133.796L208.939 138.895L212 134ZM180.235 151.442L208.261 136.553L207.791 135.67L179.765 150.558L180.235 151.442Z" fill="black"/>
<line x1="351.943" y1="163.503" x2="412.943" y2="156.503" stroke="black" stroke-dasharray="2 2"/>
<circle cx="351.5" cy="163.5" r="2.5" fill="black"/>
</svg>
