<svg width="532" height="230" viewBox="0 0 532 230" fill="none" xmlns="http://www.w3.org/2000/svg">
<rect width="532" height="230" fill="white"/>
<path d="M305 119.592L310.468 119L311.06 124.468" stroke="black"/>
<circle cx="63" cy="92" r="34" stroke="black" stroke-width="2"/>
<circle cx="173" cy="112" r="59" stroke="black" stroke-width="2"/>
<line x1="62.5" y1="88" x2="62.5" y2="95" stroke="black"/>
<line x1="66" y1="91.5" x2="59" y2="91.5" stroke="black"/>
<line x1="172.5" y1="108" x2="172.5" y2="115" stroke="black"/>
<line x1="176" y1="111.5" x2="169" y2="111.5" stroke="black"/>
<circle cx="411" cy="113" r="94" stroke="#EE2626" stroke-width="2"/>
<line x1="300.5" y1="89" x2="300.5" y2="96" stroke="black"/>
<line x1="304" y1="92.5" x2="297" y2="92.5" stroke="black"/>
<line x1="410.5" y1="109" x2="410.5" y2="116" stroke="black"/>
<line x1="414" y1="112.5" x2="407" y2="112.5" stroke="black"/>
<path d="M64.7012 77.7734H61.127L60.3242 80H59.1641L62.4219 71.4688H63.4062L66.6699 80H65.5156L64.7012 77.7734ZM61.4668 76.8477H64.3672L62.9141 72.8574L61.4668 76.8477Z" fill="black"/>
<path d="M169.99 100V91.4688H172.779C173.705 91.4688 174.4 91.6602 174.865 92.043C175.334 92.4258 175.568 92.9922 175.568 93.7422C175.568 94.1406 175.455 94.4941 175.229 94.8027C175.002 95.1074 174.693 95.3438 174.303 95.5117C174.764 95.6406 175.127 95.8867 175.393 96.25C175.662 96.6094 175.797 97.0391 175.797 97.5391C175.797 98.3047 175.549 98.9062 175.053 99.3438C174.557 99.7812 173.855 100 172.949 100H169.99ZM171.115 96.0098V99.0801H172.973C173.496 99.0801 173.908 98.9453 174.209 98.6758C174.514 98.4023 174.666 98.0273 174.666 97.5508C174.666 96.5234 174.107 96.0098 172.99 96.0098H171.115ZM171.115 95.1074H172.814C173.307 95.1074 173.699 94.9844 173.992 94.7383C174.289 94.4922 174.438 94.1582 174.438 93.7363C174.438 93.2676 174.301 92.9277 174.027 92.7168C173.754 92.502 173.338 92.3945 172.779 92.3945H171.115V95.1074Z" fill="black"/>
<path d="M404.701 98.7734H401.127L400.324 101H399.164L402.422 92.4688H403.406L406.67 101H405.516L404.701 98.7734ZM401.467 97.8477H404.367L402.914 93.8574L401.467 97.8477ZM410.754 96.4238H413.133V97.4492H410.754V100.145H409.664V97.4492H407.285V96.4238H409.664V93.9336H410.754V96.4238ZM414.627 101V92.4688H417.416C418.342 92.4688 419.037 92.6602 419.502 93.043C419.971 93.4258 420.205 93.9922 420.205 94.7422C420.205 95.1406 420.092 95.4941 419.865 95.8027C419.639 96.1074 419.33 96.3438 418.939 96.5117C419.4 96.6406 419.764 96.8867 420.029 97.25C420.299 97.6094 420.434 98.0391 420.434 98.5391C420.434 99.3047 420.186 99.9062 419.689 100.344C419.193 100.781 418.492 101 417.586 101H414.627ZM415.752 97.0098V100.08H417.609C418.133 100.08 418.545 99.9453 418.846 99.6758C419.15 99.4023 419.303 99.0273 419.303 98.5508C419.303 97.5234 418.744 97.0098 417.627 97.0098H415.752ZM415.752 96.1074H417.451C417.943 96.1074 418.336 95.9844 418.629 95.7383C418.926 95.4922 419.074 95.1582 419.074 94.7363C419.074 94.2676 418.938 93.9277 418.664 93.7168C418.391 93.502 417.975 93.3945 417.416 93.3945H415.752V96.1074Z" fill="black"/>
<path d="M66.8145 112.506L69.252 105.469H70.4824L67.3184 114H66.3223L63.1641 105.469H64.3887L66.8145 112.506ZM73.9663 112.701H71.8813L71.4131 114H70.7363L72.6367 109.023H73.2109L75.1147 114H74.4414L73.9663 112.701ZM72.0796 112.161H73.7715L72.9238 109.833L72.0796 112.161Z" fill="black"/>
<path d="M192.814 114.506L195.252 107.469H196.482L193.318 116H192.322L189.164 107.469H190.389L192.814 114.506ZM197.218 116V111.023H198.845C199.385 111.023 199.791 111.135 200.062 111.358C200.335 111.582 200.472 111.912 200.472 112.35C200.472 112.582 200.406 112.788 200.274 112.968C200.142 113.146 199.962 113.284 199.734 113.382C200.003 113.457 200.215 113.601 200.37 113.812C200.527 114.022 200.605 114.273 200.605 114.564C200.605 115.011 200.461 115.362 200.171 115.617C199.882 115.872 199.473 116 198.944 116H197.218ZM197.875 113.672V115.463H198.958C199.263 115.463 199.504 115.385 199.679 115.228C199.857 115.068 199.946 114.849 199.946 114.571C199.946 113.972 199.62 113.672 198.968 113.672H197.875ZM197.875 113.146H198.866C199.153 113.146 199.382 113.074 199.553 112.931C199.726 112.787 199.812 112.592 199.812 112.346C199.812 112.073 199.733 111.875 199.573 111.751C199.414 111.626 199.171 111.563 198.845 111.563H197.875V113.146Z" fill="black"/>
<path d="M101 127L99.278 121.489L95.3666 125.736L101 127ZM62.6613 92.3678L97.3513 124.319L98.0288 123.584L63.3387 91.6322L62.6613 92.3678Z" fill="black"/>
<path d="M205 95L199.23 94.7964L201.939 99.8951L205 95ZM173.235 112.442L201.261 97.5528L200.791 96.6696L172.765 111.558L173.235 112.442Z" fill="black"/>
<path d="M307 145L313 198" stroke="black" stroke-opacity="0.5" stroke-dasharray="2 2"/>
<path d="M307 145L311.589 134.404L300.118 135.728L307 145ZM300.007 93.1146L304.975 136.174L306.962 135.945L301.993 92.8854L300.007 93.1146Z" fill="#EE2626"/>
<path d="M283.814 133.506L286.252 126.469H287.482L284.318 135H283.322L280.164 126.469H281.389L283.814 133.506ZM290.966 133.701H288.881L288.413 135H287.736L289.637 130.023H290.211L292.115 135H291.441L290.966 133.701ZM289.08 133.161H290.771L289.924 130.833L289.08 133.161ZM292.785 135V130.023H294.412C294.952 130.023 295.357 130.135 295.628 130.358C295.902 130.582 296.039 130.912 296.039 131.35C296.039 131.582 295.972 131.788 295.84 131.968C295.708 132.146 295.528 132.284 295.3 132.382C295.569 132.457 295.781 132.601 295.936 132.812C296.093 133.022 296.172 133.273 296.172 133.564C296.172 134.011 296.027 134.362 295.738 134.617C295.448 134.872 295.039 135 294.511 135H292.785ZM293.441 132.672V134.463H294.524C294.83 134.463 295.07 134.385 295.246 134.228C295.423 134.068 295.512 133.849 295.512 133.571C295.512 132.972 295.186 132.672 294.535 132.672H293.441ZM293.441 132.146H294.432C294.719 132.146 294.948 132.074 295.119 131.931C295.292 131.787 295.379 131.592 295.379 131.346C295.379 131.073 295.299 130.875 295.14 130.751C294.98 130.626 294.737 130.563 294.412 130.563H293.441V132.146Z" fill="black"/>
<line x1="304.939" y1="125.504" x2="409.939" y2="112.504" stroke="black"/>
<circle cx="304.5" cy="125.5" r="2.5" fill="black"/>
<circle cx="317.5" cy="123.5" r="3.5" fill="#EE2626"/>
</svg>
