<svg width="657" height="343" viewBox="0 0 657 343" fill="none" xmlns="http://www.w3.org/2000/svg">
<rect width="657" height="343" fill="white"/>
<line x1="65.5" y1="132.718" x2="65.5" y2="139.718" stroke="black"/>
<line x1="69" y1="136.218" x2="62" y2="136.218" stroke="black"/>
<line x1="353.5" y1="106.718" x2="353.5" y2="113.718" stroke="black"/>
<line x1="357" y1="110.218" x2="350" y2="110.218" stroke="black"/>
<line x1="422.5" y1="114" x2="422.5" y2="121" stroke="black"/>
<line x1="426" y1="117.5" x2="419" y2="117.5" stroke="black"/>
<line x1="532.5" y1="84.0001" x2="532.5" y2="91.0001" stroke="black"/>
<line x1="536" y1="87.5001" x2="529" y2="87.5001" stroke="black"/>
<line x1="549.5" y1="149" x2="549.5" y2="156" stroke="black"/>
<line x1="553" y1="152.5" x2="546" y2="152.5" stroke="black"/>
<line x1="549.5" y1="199" x2="549.5" y2="206" stroke="black"/>
<line x1="553" y1="202.5" x2="546" y2="202.5" stroke="black"/>
<line x1="439.5" y1="229" x2="439.5" y2="236" stroke="black"/>
<line x1="443" y1="232.5" x2="436" y2="232.5" stroke="black"/>
<line x1="422.5" y1="162" x2="422.5" y2="169" stroke="black"/>
<line x1="426" y1="165.5" x2="419" y2="165.5" stroke="black"/>
<line x1="65.5" y1="185.718" x2="65.5" y2="192.718" stroke="black"/>
<line x1="69" y1="189.218" x2="62" y2="189.218" stroke="black"/>
<line x1="133.737" y1="139.748" x2="135.548" y2="146.51" stroke="black"/>
<line x1="138.023" y1="142.223" x2="131.262" y2="144.035" stroke="black"/>
<line x1="243.852" y1="110.243" x2="245.664" y2="117.004" stroke="black"/>
<line x1="248.139" y1="112.718" x2="241.377" y2="114.53" stroke="black"/>
<line x1="151.077" y1="204.465" x2="152.889" y2="211.227" stroke="black"/>
<line x1="155.364" y1="206.94" x2="148.603" y2="208.752" stroke="black"/>
<line x1="261.193" y1="174.96" x2="263.005" y2="181.721" stroke="black"/>
<line x1="265.48" y1="177.435" x2="258.718" y2="179.247" stroke="black"/>
<path d="M94.6399 126.911C96.198 130.684 97 134.727 97 138.811V189.718C97 193.801 96.198 197.845 94.6399 201.618C93.0817 205.39 90.798 208.818 87.9193 211.705C85.0405 214.592 81.6231 216.882 77.8622 218.444C74.1014 220.007 70.0706 220.811 66 220.811C61.9294 220.811 57.8986 220.007 54.1378 218.444C50.3769 216.882 46.9595 214.592 44.0807 211.705C41.202 208.818 38.9183 205.39 37.3601 201.618C35.802 197.845 35 193.801 35 189.718V138.811C35 134.727 35.802 130.684 37.3601 126.911L36.4359 126.529L37.3601 126.911C38.9183 123.139 41.202 119.711 44.0807 116.824C46.9595 113.937 50.3769 111.647 54.1378 110.084L53.7541 109.161L54.1378 110.084C57.8986 108.522 61.9294 107.718 66 107.718C70.0706 107.718 74.1014 108.522 77.8622 110.084C81.6231 111.647 85.0405 113.937 87.9193 116.824L88.6274 116.118L87.9193 116.824C90.798 119.711 93.0817 123.139 94.6399 126.911Z" stroke="black" stroke-width="2"/>
<line x1="65.5" y1="135.718" x2="65.5" y2="185.718" stroke="black" stroke-dasharray="4 4"/>
<rect x="112.951" y="129.789" width="149" height="105" rx="19" transform="rotate(-15 112.951 129.789)" stroke="black" stroke-width="2"/>
<rect x="134.642" y="143.129" width="114" height="67" transform="rotate(-15 134.642 143.129)" stroke="black" stroke-dasharray="4 4"/>
<path d="M75.7012 162.773H72.127L71.3242 165H70.1641L73.4219 156.469H74.4062L77.6699 165H76.5156L75.7012 162.773ZM72.4668 161.848H75.3672L73.9141 157.857L72.4668 161.848Z" fill="black"/>
<path d="M198.99 164V155.469H201.779C202.705 155.469 203.4 155.66 203.865 156.043C204.334 156.426 204.568 156.992 204.568 157.742C204.568 158.141 204.455 158.494 204.229 158.803C204.002 159.107 203.693 159.344 203.303 159.512C203.764 159.641 204.127 159.887 204.393 160.25C204.662 160.609 204.797 161.039 204.797 161.539C204.797 162.305 204.549 162.906 204.053 163.344C203.557 163.781 202.855 164 201.949 164H198.99ZM200.115 160.01V163.08H201.973C202.496 163.08 202.908 162.945 203.209 162.676C203.514 162.402 203.666 162.027 203.666 161.551C203.666 160.523 203.107 160.01 201.99 160.01H200.115ZM200.115 159.107H201.814C202.307 159.107 202.699 158.984 202.992 158.738C203.289 158.492 203.438 158.158 203.438 157.736C203.438 157.268 203.301 156.928 203.027 156.717C202.754 156.502 202.338 156.395 201.779 156.395H200.115V159.107Z" fill="black"/>
<path d="M95.8848 61.6328C95.7207 61.6055 95.543 61.5918 95.3516 61.5918C94.6406 61.5918 94.1582 61.8945 93.9043 62.5V67H92.8203V60.6602H93.875L93.8926 61.3926C94.248 60.8262 94.752 60.543 95.4043 60.543C95.6152 60.543 95.7754 60.5703 95.8848 60.625V61.6328ZM99.4004 67.1172C98.541 67.1172 97.8418 66.8359 97.3027 66.2734C96.7637 65.707 96.4941 64.9512 96.4941 64.0059V63.8066C96.4941 63.1777 96.6133 62.6172 96.8516 62.125C97.0938 61.6289 97.4297 61.2422 97.8594 60.9648C98.293 60.6836 98.7617 60.543 99.2656 60.543C100.09 60.543 100.73 60.8145 101.188 61.3574C101.645 61.9004 101.873 62.6777 101.873 63.6895V64.1406H97.5781C97.5938 64.7656 97.7754 65.2715 98.123 65.6582C98.4746 66.041 98.9199 66.2324 99.459 66.2324C99.8418 66.2324 100.166 66.1543 100.432 65.998C100.697 65.8418 100.93 65.6348 101.129 65.377L101.791 65.8926C101.26 66.709 100.463 67.1172 99.4004 67.1172ZM99.2656 61.4336C98.8281 61.4336 98.4609 61.5938 98.1641 61.9141C97.8672 62.2305 97.6836 62.6758 97.6133 63.25H100.789V63.168C100.758 62.6172 100.609 62.1914 100.344 61.8906C100.078 61.5859 99.7188 61.4336 99.2656 61.4336ZM104.311 67H103.227V58H104.311V67ZM109.965 67C109.902 66.875 109.852 66.6523 109.812 66.332C109.309 66.8555 108.707 67.1172 108.008 67.1172C107.383 67.1172 106.869 66.9414 106.467 66.5898C106.068 66.2344 105.869 65.7852 105.869 65.2422C105.869 64.582 106.119 64.0703 106.619 63.707C107.123 63.3398 107.83 63.1562 108.74 63.1562H109.795V62.6582C109.795 62.2793 109.682 61.9785 109.455 61.7559C109.229 61.5293 108.895 61.416 108.453 61.416C108.066 61.416 107.742 61.5137 107.48 61.709C107.219 61.9043 107.088 62.1406 107.088 62.418H105.998C105.998 62.1016 106.109 61.7969 106.332 61.5039C106.559 61.207 106.863 60.9727 107.246 60.8008C107.633 60.6289 108.057 60.543 108.518 60.543C109.248 60.543 109.82 60.7266 110.234 61.0938C110.648 61.457 110.863 61.959 110.879 62.5996V65.5176C110.879 66.0996 110.953 66.5625 111.102 66.9062V67H109.965ZM108.166 66.1738C108.506 66.1738 108.828 66.0859 109.133 65.9102C109.438 65.7344 109.658 65.5059 109.795 65.2246V63.9238H108.945C107.617 63.9238 106.953 64.3125 106.953 65.0898C106.953 65.4297 107.066 65.6953 107.293 65.8867C107.52 66.0781 107.811 66.1738 108.166 66.1738ZM114.049 59.125V60.6602H115.232V61.498H114.049V65.4297C114.049 65.6836 114.102 65.875 114.207 66.0039C114.312 66.1289 114.492 66.1914 114.746 66.1914C114.871 66.1914 115.043 66.168 115.262 66.1211V67C114.977 67.0781 114.699 67.1172 114.43 67.1172C113.945 67.1172 113.58 66.9707 113.334 66.6777C113.088 66.3848 112.965 65.9688 112.965 65.4297V61.498H111.811V60.6602H112.965V59.125H114.049ZM117.682 67H116.598V60.6602H117.682V67ZM116.51 58.9785C116.51 58.8027 116.562 58.6543 116.668 58.5332C116.777 58.4121 116.938 58.3516 117.148 58.3516C117.359 58.3516 117.52 58.4121 117.629 58.5332C117.738 58.6543 117.793 58.8027 117.793 58.9785C117.793 59.1543 117.738 59.3008 117.629 59.418C117.52 59.5352 117.359 59.5938 117.148 59.5938C116.938 59.5938 116.777 59.5352 116.668 59.418C116.562 59.3008 116.51 59.1543 116.51 58.9785ZM121.514 65.5293L123.084 60.6602H124.191L121.918 67H121.092L118.795 60.6602H119.902L121.514 65.5293ZM127.783 67.1172C126.924 67.1172 126.225 66.8359 125.686 66.2734C125.146 65.707 124.877 64.9512 124.877 64.0059V63.8066C124.877 63.1777 124.996 62.6172 125.234 62.125C125.477 61.6289 125.812 61.2422 126.242 60.9648C126.676 60.6836 127.145 60.543 127.648 60.543C128.473 60.543 129.113 60.8145 129.57 61.3574C130.027 61.9004 130.256 62.6777 130.256 63.6895V64.1406H125.961C125.977 64.7656 126.158 65.2715 126.506 65.6582C126.857 66.041 127.303 66.2324 127.842 66.2324C128.225 66.2324 128.549 66.1543 128.814 65.998C129.08 65.8418 129.312 65.6348 129.512 65.377L130.174 65.8926C129.643 66.709 128.846 67.1172 127.783 67.1172ZM127.648 61.4336C127.211 61.4336 126.844 61.5938 126.547 61.9141C126.25 62.2305 126.066 62.6758 125.996 63.25H129.172V63.168C129.141 62.6172 128.992 62.1914 128.727 61.8906C128.461 61.5859 128.102 61.4336 127.648 61.4336ZM139.848 63.9004C139.848 64.8652 139.627 65.6426 139.186 66.2324C138.744 66.8223 138.146 67.1172 137.393 67.1172C136.623 67.1172 136.018 66.873 135.576 66.3848V69.4375H134.492V60.6602H135.482L135.535 61.3633C135.977 60.8164 136.59 60.543 137.375 60.543C138.137 60.543 138.738 60.8301 139.18 61.4043C139.625 61.9785 139.848 62.7773 139.848 63.8008V63.9004ZM138.764 63.7773C138.764 63.0625 138.611 62.498 138.307 62.084C138.002 61.6699 137.584 61.4629 137.053 61.4629C136.396 61.4629 135.904 61.7539 135.576 62.3359V65.3652C135.9 65.9434 136.396 66.2324 137.064 66.2324C137.584 66.2324 137.996 66.0273 138.301 65.6172C138.609 65.2031 138.764 64.5898 138.764 63.7773ZM140.943 63.7715C140.943 63.1504 141.064 62.5918 141.307 62.0957C141.553 61.5996 141.893 61.2168 142.326 60.9473C142.764 60.6777 143.262 60.543 143.82 60.543C144.684 60.543 145.381 60.8418 145.912 61.4395C146.447 62.0371 146.715 62.832 146.715 63.8242V63.9004C146.715 64.5176 146.596 65.0723 146.357 65.5645C146.123 66.0527 145.785 66.4336 145.344 66.707C144.906 66.9805 144.402 67.1172 143.832 67.1172C142.973 67.1172 142.275 66.8184 141.74 66.2207C141.209 65.623 140.943 64.832 140.943 63.8477V63.7715ZM142.033 63.9004C142.033 64.6035 142.195 65.168 142.52 65.5938C142.848 66.0195 143.285 66.2324 143.832 66.2324C144.383 66.2324 144.82 66.0176 145.145 65.5879C145.469 65.1543 145.631 64.5488 145.631 63.7715C145.631 63.0762 145.465 62.5137 145.133 62.084C144.805 61.6504 144.367 61.4336 143.82 61.4336C143.285 61.4336 142.854 61.6465 142.525 62.0723C142.197 62.498 142.033 63.1074 142.033 63.9004ZM151.766 65.3184C151.766 65.0254 151.654 64.7988 151.432 64.6387C151.213 64.4746 150.828 64.334 150.277 64.2168C149.73 64.0996 149.295 63.959 148.971 63.7949C148.65 63.6309 148.412 63.4355 148.256 63.209C148.104 62.9824 148.027 62.7129 148.027 62.4004C148.027 61.8809 148.246 61.4414 148.684 61.082C149.125 60.7227 149.688 60.543 150.371 60.543C151.09 60.543 151.672 60.7285 152.117 61.0996C152.566 61.4707 152.791 61.9453 152.791 62.5234H151.701C151.701 62.2266 151.574 61.9707 151.32 61.7559C151.07 61.541 150.754 61.4336 150.371 61.4336C149.977 61.4336 149.668 61.5195 149.445 61.6914C149.223 61.8633 149.111 62.0879 149.111 62.3652C149.111 62.627 149.215 62.8242 149.422 62.957C149.629 63.0898 150.002 63.2168 150.541 63.3379C151.084 63.459 151.523 63.6035 151.859 63.7715C152.195 63.9395 152.443 64.1426 152.604 64.3809C152.768 64.6152 152.85 64.9023 152.85 65.2422C152.85 65.8086 152.623 66.2637 152.17 66.6074C151.717 66.9473 151.129 67.1172 150.406 67.1172C149.898 67.1172 149.449 67.0273 149.059 66.8477C148.668 66.668 148.361 66.418 148.139 66.0977C147.92 65.7734 147.811 65.4238 147.811 65.0488H148.895C148.914 65.4121 149.059 65.7012 149.328 65.916C149.602 66.127 149.961 66.2324 150.406 66.2324C150.816 66.2324 151.145 66.1504 151.391 65.9863C151.641 65.8184 151.766 65.5957 151.766 65.3184ZM155.439 67H154.355V60.6602H155.439V67ZM154.268 58.9785C154.268 58.8027 154.32 58.6543 154.426 58.5332C154.535 58.4121 154.695 58.3516 154.906 58.3516C155.117 58.3516 155.277 58.4121 155.387 58.5332C155.496 58.6543 155.551 58.8027 155.551 58.9785C155.551 59.1543 155.496 59.3008 155.387 59.418C155.277 59.5352 155.117 59.5938 154.906 59.5938C154.695 59.5938 154.535 59.5352 154.426 59.418C154.32 59.3008 154.268 59.1543 154.268 58.9785ZM158.65 59.125V60.6602H159.834V61.498H158.65V65.4297C158.65 65.6836 158.703 65.875 158.809 66.0039C158.914 66.1289 159.094 66.1914 159.348 66.1914C159.473 66.1914 159.645 66.168 159.863 66.1211V67C159.578 67.0781 159.301 67.1172 159.031 67.1172C158.547 67.1172 158.182 66.9707 157.936 66.6777C157.689 66.3848 157.566 65.9688 157.566 65.4297V61.498H156.412V60.6602H157.566V59.125H158.65ZM162.283 67H161.199V60.6602H162.283V67ZM161.111 58.9785C161.111 58.8027 161.164 58.6543 161.27 58.5332C161.379 58.4121 161.539 58.3516 161.75 58.3516C161.961 58.3516 162.121 58.4121 162.23 58.5332C162.34 58.6543 162.395 58.8027 162.395 58.9785C162.395 59.1543 162.34 59.3008 162.23 59.418C162.121 59.5352 161.961 59.5938 161.75 59.5938C161.539 59.5938 161.379 59.5352 161.27 59.418C161.164 59.3008 161.111 59.1543 161.111 58.9785ZM163.736 63.7715C163.736 63.1504 163.857 62.5918 164.1 62.0957C164.346 61.5996 164.686 61.2168 165.119 60.9473C165.557 60.6777 166.055 60.543 166.613 60.543C167.477 60.543 168.174 60.8418 168.705 61.4395C169.24 62.0371 169.508 62.832 169.508 63.8242V63.9004C169.508 64.5176 169.389 65.0723 169.15 65.5645C168.916 66.0527 168.578 66.4336 168.137 66.707C167.699 66.9805 167.195 67.1172 166.625 67.1172C165.766 67.1172 165.068 66.8184 164.533 66.2207C164.002 65.623 163.736 64.832 163.736 63.8477V63.7715ZM164.826 63.9004C164.826 64.6035 164.988 65.168 165.312 65.5938C165.641 66.0195 166.078 66.2324 166.625 66.2324C167.176 66.2324 167.613 66.0176 167.938 65.5879C168.262 65.1543 168.424 64.5488 168.424 63.7715C168.424 63.0762 168.258 62.5137 167.926 62.084C167.598 61.6504 167.16 61.4336 166.613 61.4336C166.078 61.4336 165.646 61.6465 165.318 62.0723C164.99 62.498 164.826 63.1074 164.826 63.9004ZM171.893 60.6602L171.928 61.457C172.412 60.8477 173.045 60.543 173.826 60.543C175.166 60.543 175.842 61.2988 175.854 62.8105V67H174.77V62.8047C174.766 62.3477 174.66 62.0098 174.453 61.791C174.25 61.5723 173.932 61.4629 173.498 61.4629C173.146 61.4629 172.838 61.5566 172.572 61.7441C172.307 61.9316 172.1 62.1777 171.951 62.4824V67H170.867V60.6602H171.893Z" fill="black"/>
<path d="M480.701 161.774H477.127L476.324 164H475.164L478.422 155.469H479.406L482.67 164H481.516L480.701 161.774ZM477.467 160.848H480.367L478.914 156.858L477.467 160.848ZM486.754 159.424H489.133V160.449H486.754V163.145H485.664V160.449H483.285V159.424H485.664V156.934H486.754V159.424ZM490.627 164V155.469H493.416C494.342 155.469 495.037 155.66 495.502 156.043C495.971 156.426 496.205 156.992 496.205 157.742C496.205 158.141 496.092 158.494 495.865 158.803C495.639 159.108 495.33 159.344 494.939 159.512C495.4 159.641 495.764 159.887 496.029 160.25C496.299 160.609 496.434 161.039 496.434 161.539C496.434 162.305 496.186 162.906 495.689 163.344C495.193 163.781 494.492 164 493.586 164H490.627ZM491.752 160.01V163.08H493.609C494.133 163.08 494.545 162.945 494.846 162.676C495.15 162.402 495.303 162.027 495.303 161.551C495.303 160.524 494.744 160.01 493.627 160.01H491.752ZM491.752 159.108H493.451C493.943 159.108 494.336 158.984 494.629 158.738C494.926 158.492 495.074 158.158 495.074 157.736C495.074 157.268 494.938 156.928 494.664 156.717C494.391 156.502 493.975 156.395 493.416 156.395H491.752V159.108Z" fill="black"/>
<path d="M423 166V117L533 88.0001L550 153V203L439.5 232.5L423 166Z" stroke="black" stroke-dasharray="4 4"/>
<path fill-rule="evenodd" clip-rule="evenodd" d="M559.73 42.2341C571.883 49.3323 580.714 60.9732 584.275 74.5897L601.275 139.59C602.42 143.968 603 148.475 603 153V203C603 227.006 586.864 248.015 563.671 254.207L453.171 283.707C439.433 287.374 424.798 285.368 412.554 278.139C400.31 270.91 391.484 259.064 388.06 245.264L371.56 178.764C370.524 174.588 370 170.302 370 166V117C370 92.9327 386.217 71.8867 409.489 65.7512L519.489 36.7512C533.098 33.1633 547.576 35.1359 559.73 42.2341Z" stroke="black" stroke-width="2" stroke-linejoin="round"/>
<path d="M159 89L149.839 81.9713L148.332 93.4196L159 89ZM82.8695 79.9915L149.946 88.8174L150.207 86.8345L83.1305 78.0085L82.8695 79.9915Z" fill="#EE2626"/>
<line x1="65.5" y1="136" x2="65.5" y2="189" stroke="#1ABBEE" stroke-opacity="0.5" stroke-width="7"/>
<line x1="423.5" y1="114" x2="423.5" y2="167" stroke="#1ABBEE" stroke-opacity="0.5" stroke-width="7"/>
<path d="M134 143L151.5 208" stroke="#F97F10" stroke-opacity="0.5" stroke-width="7"/>
<path d="M422 167L439.5 232" stroke="#F97F10" stroke-opacity="0.5" stroke-width="7"/>
<path d="M135 143L245 114" stroke="#F97F10" stroke-opacity="0.5" stroke-width="7"/>
<path d="M423 117L533 88.0001" stroke="#F97F10" stroke-opacity="0.5" stroke-width="7"/>
<path d="M40.416 262H38.9512L36.0996 257.322V262H34.6348V254.891H36.0996L38.9561 259.578V254.891H40.416V262ZM41.3828 259.31C41.3828 258.785 41.4837 258.318 41.6855 257.908C41.8874 257.498 42.1771 257.181 42.5547 256.956C42.9355 256.731 43.3766 256.619 43.8779 256.619C44.5908 256.619 45.1719 256.837 45.6211 257.273C46.0736 257.71 46.3258 258.302 46.3779 259.051L46.3877 259.412C46.3877 260.223 46.1615 260.874 45.709 261.365C45.2565 261.854 44.6494 262.098 43.8877 262.098C43.126 262.098 42.5173 261.854 42.0615 261.365C41.609 260.877 41.3828 260.213 41.3828 259.373V259.31ZM42.7939 259.412C42.7939 259.913 42.8883 260.298 43.0771 260.564C43.266 260.828 43.5361 260.96 43.8877 260.96C44.2295 260.96 44.4964 260.83 44.6885 260.569C44.8805 260.306 44.9766 259.886 44.9766 259.31C44.9766 258.818 44.8805 258.437 44.6885 258.167C44.4964 257.897 44.2262 257.762 43.8779 257.762C43.5329 257.762 43.266 257.897 43.0771 258.167C42.8883 258.434 42.7939 258.849 42.7939 259.412ZM48.9463 255.418V256.717H49.8496V257.752H48.9463V260.389C48.9463 260.584 48.9837 260.724 49.0586 260.809C49.1335 260.893 49.2767 260.936 49.4883 260.936C49.6445 260.936 49.7829 260.924 49.9033 260.901V261.971C49.6266 262.055 49.3418 262.098 49.0488 262.098C48.0592 262.098 47.5547 261.598 47.5352 260.599V257.752H46.7637V256.717H47.5352V255.418H48.9463ZM53.0674 262.098C52.2926 262.098 51.6611 261.86 51.1729 261.385C50.6878 260.91 50.4453 260.276 50.4453 259.485V259.349C50.4453 258.818 50.5479 258.344 50.7529 257.928C50.958 257.508 51.2477 257.186 51.6221 256.961C51.9997 256.733 52.4294 256.619 52.9111 256.619C53.6338 256.619 54.2018 256.847 54.6152 257.303C55.0319 257.758 55.2402 258.405 55.2402 259.241V259.817H51.876C51.9215 260.162 52.0583 260.439 52.2861 260.647C52.5173 260.856 52.8086 260.96 53.1602 260.96C53.7038 260.96 54.1286 260.763 54.4346 260.369L55.1279 261.146C54.9163 261.445 54.6299 261.679 54.2686 261.849C53.9072 262.015 53.5068 262.098 53.0674 262.098ZM52.9062 257.762C52.6263 257.762 52.3984 257.856 52.2227 258.045C52.0501 258.234 51.9395 258.504 51.8906 258.855H53.8535V258.743C53.847 258.431 53.7624 258.19 53.5996 258.021C53.4368 257.848 53.2057 257.762 52.9062 257.762ZM56.1582 261.526C56.1582 261.37 56.2038 261.24 56.2949 261.136C56.3893 261.032 56.5293 260.979 56.7148 260.979C56.9004 260.979 57.0404 261.032 57.1348 261.136C57.2324 261.24 57.2812 261.37 57.2812 261.526C57.2812 261.676 57.2324 261.801 57.1348 261.902C57.0404 262.003 56.9004 262.054 56.7148 262.054C56.5293 262.054 56.3893 262.003 56.2949 261.902C56.2038 261.801 56.1582 261.676 56.1582 261.526ZM56.1631 257.215C56.1631 257.059 56.2087 256.928 56.2998 256.824C56.3942 256.72 56.5342 256.668 56.7197 256.668C56.9053 256.668 57.0452 256.72 57.1396 256.824C57.2373 256.928 57.2861 257.059 57.2861 257.215C57.2861 257.365 57.2373 257.49 57.1396 257.591C57.0452 257.692 56.9053 257.742 56.7197 257.742C56.5342 257.742 56.3942 257.692 56.2998 257.591C56.2087 257.49 56.1631 257.365 56.1631 257.215ZM65.1523 258.86H62.1689V262H61.2314V254.891H65.6357V255.662H62.1689V258.094H65.1523V258.86ZM66.2705 259.31C66.2705 258.792 66.3714 258.326 66.5732 257.913C66.7783 257.5 67.0615 257.181 67.4229 256.956C67.7874 256.731 68.2025 256.619 68.668 256.619C69.3874 256.619 69.9684 256.868 70.4111 257.366C70.8571 257.864 71.0801 258.527 71.0801 259.354V259.417C71.0801 259.931 70.9808 260.394 70.7822 260.804C70.5869 261.211 70.3053 261.528 69.9375 261.756C69.5729 261.984 69.153 262.098 68.6777 262.098C67.9616 262.098 67.3805 261.849 66.9346 261.351C66.4919 260.853 66.2705 260.193 66.2705 259.373V259.31ZM67.1787 259.417C67.1787 260.003 67.3138 260.473 67.584 260.828C67.8574 261.183 68.222 261.36 68.6777 261.36C69.1367 261.36 69.5013 261.181 69.7715 260.823C70.0417 260.462 70.1768 259.957 70.1768 259.31C70.1768 258.73 70.0384 258.261 69.7617 257.903C69.4883 257.542 69.1237 257.361 68.668 257.361C68.222 257.361 67.8623 257.539 67.5889 257.894C67.3154 258.248 67.1787 258.756 67.1787 259.417ZM74.7666 257.527C74.6299 257.505 74.4818 257.493 74.3223 257.493C73.7298 257.493 73.3278 257.745 73.1162 258.25V262H72.2129V256.717H73.0918L73.1064 257.327C73.4027 256.855 73.8226 256.619 74.3662 256.619C74.542 256.619 74.6755 256.642 74.7666 256.688V257.527ZM79.4346 254.891L81.7588 260.691L84.083 254.891H85.2988V262H84.3613V259.231L84.4492 256.243L82.1152 262H81.3975L79.0684 256.258L79.1611 259.231V262H78.2236V254.891H79.4346ZM87.7939 262H86.8906V256.717H87.7939V262ZM86.8174 255.315C86.8174 255.169 86.8613 255.045 86.9492 254.944C87.0404 254.843 87.1738 254.793 87.3496 254.793C87.5254 254.793 87.6589 254.843 87.75 254.944C87.8411 255.045 87.8867 255.169 87.8867 255.315C87.8867 255.462 87.8411 255.584 87.75 255.682C87.6589 255.779 87.5254 255.828 87.3496 255.828C87.1738 255.828 87.0404 255.779 86.9492 255.682C86.8613 255.584 86.8174 255.462 86.8174 255.315ZM90.0986 256.717L90.1279 257.381C90.5316 256.873 91.0589 256.619 91.71 256.619C92.8265 256.619 93.3896 257.249 93.3994 258.509V262H92.4961V258.504C92.4928 258.123 92.4049 257.841 92.2324 257.659C92.0632 257.477 91.7979 257.386 91.4365 257.386C91.1436 257.386 90.8864 257.464 90.665 257.62C90.4437 257.776 90.2712 257.981 90.1475 258.235V262H89.2441V256.717H90.0986ZM96.2363 259.554L95.6699 260.145V262H94.7666V254.5H95.6699V259.036L96.1533 258.455L97.7988 256.717H98.8975L96.8418 258.924L99.1367 262H98.0771L96.2363 259.554ZM99.5908 259.31C99.5908 258.792 99.6917 258.326 99.8936 257.913C100.099 257.5 100.382 257.181 100.743 256.956C101.108 256.731 101.523 256.619 101.988 256.619C102.708 256.619 103.289 256.868 103.731 257.366C104.177 257.864 104.4 258.527 104.4 259.354V259.417C104.4 259.931 104.301 260.394 104.103 260.804C103.907 261.211 103.626 261.528 103.258 261.756C102.893 261.984 102.473 262.098 101.998 262.098C101.282 262.098 100.701 261.849 100.255 261.351C99.8122 260.853 99.5908 260.193 99.5908 259.373V259.31ZM100.499 259.417C100.499 260.003 100.634 260.473 100.904 260.828C101.178 261.183 101.542 261.36 101.998 261.36C102.457 261.36 102.822 261.181 103.092 260.823C103.362 260.462 103.497 259.957 103.497 259.31C103.497 258.73 103.359 258.261 103.082 257.903C102.809 257.542 102.444 257.361 101.988 257.361C101.542 257.361 101.183 257.539 100.909 257.894C100.636 258.248 100.499 258.756 100.499 259.417ZM110.211 260.755L111.227 256.717H112.13L110.592 262H109.859L108.575 257.996L107.325 262H106.593L105.06 256.717H105.958L106.998 260.672L108.229 256.717H108.956L110.211 260.755ZM116.129 260.599C116.129 260.354 116.036 260.166 115.851 260.032C115.668 259.896 115.348 259.778 114.889 259.681C114.433 259.583 114.07 259.466 113.8 259.329C113.533 259.192 113.334 259.03 113.204 258.841C113.077 258.652 113.014 258.427 113.014 258.167C113.014 257.734 113.196 257.368 113.561 257.068C113.928 256.769 114.397 256.619 114.967 256.619C115.566 256.619 116.051 256.774 116.422 257.083C116.796 257.392 116.983 257.788 116.983 258.27H116.075C116.075 258.022 115.969 257.809 115.758 257.63C115.549 257.451 115.286 257.361 114.967 257.361C114.638 257.361 114.381 257.433 114.195 257.576C114.01 257.719 113.917 257.907 113.917 258.138C113.917 258.356 114.003 258.52 114.176 258.631C114.348 258.742 114.659 258.847 115.108 258.948C115.561 259.049 115.927 259.17 116.207 259.31C116.487 259.45 116.694 259.619 116.827 259.817C116.964 260.013 117.032 260.252 117.032 260.535C117.032 261.007 116.843 261.386 116.466 261.673C116.088 261.956 115.598 262.098 114.996 262.098C114.573 262.098 114.199 262.023 113.873 261.873C113.548 261.723 113.292 261.515 113.106 261.248C112.924 260.978 112.833 260.687 112.833 260.374H113.736C113.753 260.677 113.873 260.918 114.098 261.097C114.326 261.272 114.625 261.36 114.996 261.36C115.338 261.36 115.611 261.292 115.816 261.155C116.025 261.015 116.129 260.83 116.129 260.599ZM119.684 259.554L119.117 260.145V262H118.214V254.5H119.117V259.036L119.601 258.455L121.246 256.717H122.345L120.289 258.924L122.584 262H121.524L119.684 259.554ZM124.259 262H123.355V256.717H124.259V262ZM123.282 255.315C123.282 255.169 123.326 255.045 123.414 254.944C123.505 254.843 123.639 254.793 123.814 254.793C123.99 254.793 124.124 254.843 124.215 254.944C124.306 255.045 124.352 255.169 124.352 255.315C124.352 255.462 124.306 255.584 124.215 255.682C124.124 255.779 123.99 255.828 123.814 255.828C123.639 255.828 123.505 255.779 123.414 255.682C123.326 255.584 123.282 255.462 123.282 255.315ZM131.266 260.599C131.266 260.354 131.173 260.166 130.987 260.032C130.805 259.896 130.484 259.778 130.025 259.681C129.57 259.583 129.207 259.466 128.937 259.329C128.67 259.192 128.471 259.03 128.341 258.841C128.214 258.652 128.15 258.427 128.15 258.167C128.15 257.734 128.333 257.368 128.697 257.068C129.065 256.769 129.534 256.619 130.104 256.619C130.702 256.619 131.188 256.774 131.559 257.083C131.933 257.392 132.12 257.788 132.12 258.27H131.212C131.212 258.022 131.106 257.809 130.895 257.63C130.686 257.451 130.423 257.361 130.104 257.361C129.775 257.361 129.518 257.433 129.332 257.576C129.146 257.719 129.054 257.907 129.054 258.138C129.054 258.356 129.14 258.52 129.312 258.631C129.485 258.742 129.796 258.847 130.245 258.948C130.698 259.049 131.064 259.17 131.344 259.31C131.624 259.45 131.83 259.619 131.964 259.817C132.101 260.013 132.169 260.252 132.169 260.535C132.169 261.007 131.98 261.386 131.603 261.673C131.225 261.956 130.735 262.098 130.133 262.098C129.71 262.098 129.335 262.023 129.01 261.873C128.684 261.723 128.429 261.515 128.243 261.248C128.061 260.978 127.97 260.687 127.97 260.374H128.873C128.889 260.677 129.01 260.918 129.234 261.097C129.462 261.272 129.762 261.36 130.133 261.36C130.475 261.36 130.748 261.292 130.953 261.155C131.161 261.015 131.266 260.83 131.266 260.599ZM136.607 261.478C136.256 261.891 135.74 262.098 135.06 262.098C134.496 262.098 134.067 261.935 133.771 261.609C133.478 261.281 133.329 260.796 133.326 260.154V256.717H134.229V260.13C134.229 260.931 134.555 261.331 135.206 261.331C135.896 261.331 136.355 261.074 136.583 260.56V256.717H137.486V262H136.627L136.607 261.478ZM139.713 256.717L139.737 257.303C140.125 256.847 140.647 256.619 141.305 256.619C142.044 256.619 142.547 256.902 142.813 257.469C142.989 257.215 143.217 257.01 143.497 256.854C143.78 256.697 144.114 256.619 144.498 256.619C145.657 256.619 146.246 257.233 146.266 258.46V262H145.362V258.514C145.362 258.136 145.276 257.854 145.104 257.669C144.931 257.48 144.641 257.386 144.234 257.386C143.899 257.386 143.621 257.487 143.399 257.688C143.178 257.887 143.049 258.156 143.014 258.494V262H142.105V258.538C142.105 257.77 141.729 257.386 140.978 257.386C140.385 257.386 139.98 257.638 139.762 258.143V262H138.858V256.717H139.713ZM147.604 263.416L147.091 263.064C147.397 262.638 147.556 262.199 147.569 261.746V260.931H148.453V261.639C148.453 261.967 148.372 262.296 148.209 262.625C148.049 262.954 147.848 263.217 147.604 263.416ZM153.302 255.438V256.717H154.288V257.415H153.302V260.691C153.302 260.903 153.346 261.062 153.434 261.17C153.521 261.274 153.671 261.326 153.883 261.326C153.987 261.326 154.13 261.307 154.312 261.268V262C154.075 262.065 153.844 262.098 153.619 262.098C153.215 262.098 152.911 261.976 152.706 261.731C152.501 261.487 152.398 261.141 152.398 260.691V257.415H151.437V256.717H152.398V255.438H153.302ZM156.251 257.356C156.651 256.865 157.172 256.619 157.813 256.619C158.93 256.619 159.493 257.249 159.503 258.509V262H158.6V258.504C158.596 258.123 158.508 257.841 158.336 257.659C158.167 257.477 157.901 257.386 157.54 257.386C157.247 257.386 156.99 257.464 156.769 257.62C156.547 257.776 156.375 257.981 156.251 258.235V262H155.348V254.5H156.251V257.356ZM163.048 262.098C162.332 262.098 161.749 261.863 161.3 261.395C160.851 260.923 160.626 260.293 160.626 259.505V259.339C160.626 258.815 160.725 258.348 160.924 257.938C161.126 257.524 161.406 257.202 161.764 256.971C162.125 256.736 162.516 256.619 162.936 256.619C163.622 256.619 164.156 256.845 164.537 257.298C164.918 257.75 165.108 258.398 165.108 259.241V259.617H161.529C161.542 260.138 161.694 260.56 161.983 260.882C162.276 261.201 162.647 261.36 163.097 261.36C163.416 261.36 163.686 261.295 163.907 261.165C164.129 261.035 164.322 260.862 164.488 260.647L165.04 261.077C164.597 261.757 163.933 262.098 163.048 262.098ZM162.936 257.361C162.571 257.361 162.265 257.495 162.018 257.762C161.77 258.025 161.617 258.396 161.559 258.875H164.205V258.807C164.179 258.348 164.055 257.993 163.834 257.742C163.613 257.488 163.313 257.361 162.936 257.361ZM171.715 260.599C171.715 260.354 171.622 260.166 171.437 260.032C171.254 259.896 170.934 259.778 170.475 259.681C170.019 259.583 169.656 259.466 169.386 259.329C169.119 259.192 168.92 259.03 168.79 258.841C168.663 258.652 168.6 258.427 168.6 258.167C168.6 257.734 168.782 257.368 169.146 257.068C169.514 256.769 169.983 256.619 170.553 256.619C171.152 256.619 171.637 256.774 172.008 257.083C172.382 257.392 172.569 257.788 172.569 258.27H171.661C171.661 258.022 171.555 257.809 171.344 257.63C171.135 257.451 170.872 257.361 170.553 257.361C170.224 257.361 169.967 257.433 169.781 257.576C169.596 257.719 169.503 257.907 169.503 258.138C169.503 258.356 169.589 258.52 169.762 258.631C169.934 258.742 170.245 258.847 170.694 258.948C171.147 259.049 171.513 259.17 171.793 259.31C172.073 259.45 172.28 259.619 172.413 259.817C172.55 260.013 172.618 260.252 172.618 260.535C172.618 261.007 172.429 261.386 172.052 261.673C171.674 261.956 171.184 262.098 170.582 262.098C170.159 262.098 169.785 262.023 169.459 261.873C169.133 261.723 168.878 261.515 168.692 261.248C168.51 260.978 168.419 260.687 168.419 260.374H169.322C169.339 260.677 169.459 260.918 169.684 261.097C169.911 261.272 170.211 261.36 170.582 261.36C170.924 261.36 171.197 261.292 171.402 261.155C171.611 261.015 171.715 260.83 171.715 260.599ZM175.987 262.098C175.271 262.098 174.688 261.863 174.239 261.395C173.79 260.923 173.565 260.293 173.565 259.505V259.339C173.565 258.815 173.665 258.348 173.863 257.938C174.065 257.524 174.345 257.202 174.703 256.971C175.064 256.736 175.455 256.619 175.875 256.619C176.562 256.619 177.096 256.845 177.477 257.298C177.857 257.75 178.048 258.398 178.048 259.241V259.617H174.469C174.482 260.138 174.633 260.56 174.923 260.882C175.216 261.201 175.587 261.36 176.036 261.36C176.355 261.36 176.625 261.295 176.847 261.165C177.068 261.035 177.262 260.862 177.428 260.647L177.979 261.077C177.537 261.757 176.873 262.098 175.987 262.098ZM175.875 257.361C175.51 257.361 175.204 257.495 174.957 257.762C174.71 258.025 174.557 258.396 174.498 258.875H177.145V258.807C177.118 258.348 176.995 257.993 176.773 257.742C176.552 257.488 176.253 257.361 175.875 257.361ZM178.883 259.314C178.883 258.491 179.073 257.837 179.454 257.352C179.835 256.863 180.34 256.619 180.968 256.619C181.612 256.619 182.115 256.847 182.477 257.303L182.521 256.717H183.346V261.873C183.346 262.557 183.142 263.095 182.735 263.489C182.332 263.883 181.788 264.08 181.104 264.08C180.724 264.08 180.351 263.999 179.986 263.836C179.622 263.673 179.343 263.45 179.151 263.167L179.62 262.625C180.007 263.104 180.481 263.343 181.041 263.343C181.48 263.343 181.822 263.219 182.066 262.972C182.314 262.724 182.438 262.376 182.438 261.927V261.473C182.076 261.889 181.583 262.098 180.958 262.098C180.34 262.098 179.838 261.849 179.454 261.351C179.073 260.853 178.883 260.174 178.883 259.314ZM179.791 259.417C179.791 260.013 179.913 260.481 180.157 260.823C180.401 261.162 180.743 261.331 181.183 261.331C181.752 261.331 182.171 261.072 182.438 260.555V258.143C182.161 257.638 181.746 257.386 181.192 257.386C180.753 257.386 180.41 257.557 180.162 257.898C179.915 258.24 179.791 258.746 179.791 259.417ZM185.562 256.717L185.587 257.303C185.974 256.847 186.497 256.619 187.154 256.619C187.893 256.619 188.396 256.902 188.663 257.469C188.839 257.215 189.067 257.01 189.347 256.854C189.63 256.697 189.964 256.619 190.348 256.619C191.507 256.619 192.096 257.233 192.115 258.46V262H191.212V258.514C191.212 258.136 191.126 257.854 190.953 257.669C190.781 257.48 190.491 257.386 190.084 257.386C189.749 257.386 189.47 257.487 189.249 257.688C189.028 257.887 188.899 258.156 188.863 258.494V262H187.955V258.538C187.955 257.77 187.579 257.386 186.827 257.386C186.235 257.386 185.829 257.638 185.611 258.143V262H184.708V256.717H185.562ZM195.675 262.098C194.959 262.098 194.376 261.863 193.927 261.395C193.478 260.923 193.253 260.293 193.253 259.505V259.339C193.253 258.815 193.352 258.348 193.551 257.938C193.753 257.524 194.033 257.202 194.391 256.971C194.752 256.736 195.143 256.619 195.562 256.619C196.249 256.619 196.783 256.845 197.164 257.298C197.545 257.75 197.735 258.398 197.735 259.241V259.617H194.156C194.169 260.138 194.321 260.56 194.61 260.882C194.903 261.201 195.274 261.36 195.724 261.36C196.043 261.36 196.313 261.295 196.534 261.165C196.756 261.035 196.949 260.862 197.115 260.647L197.667 261.077C197.224 261.757 196.56 262.098 195.675 262.098ZM195.562 257.361C195.198 257.361 194.892 257.495 194.645 257.762C194.397 258.025 194.244 258.396 194.186 258.875H196.832V258.807C196.806 258.348 196.682 257.993 196.461 257.742C196.24 257.488 195.94 257.361 195.562 257.361ZM199.64 256.717L199.669 257.381C200.073 256.873 200.6 256.619 201.251 256.619C202.368 256.619 202.931 257.249 202.94 258.509V262H202.037V258.504C202.034 258.123 201.946 257.841 201.773 257.659C201.604 257.477 201.339 257.386 200.978 257.386C200.685 257.386 200.427 257.464 200.206 257.62C199.985 257.776 199.812 257.981 199.688 258.235V262H198.785V256.717H199.64ZM205.528 255.438V256.717H206.515V257.415H205.528V260.691C205.528 260.903 205.572 261.062 205.66 261.17C205.748 261.274 205.898 261.326 206.109 261.326C206.214 261.326 206.357 261.307 206.539 261.268V262C206.301 262.065 206.07 262.098 205.846 262.098C205.442 262.098 205.138 261.976 204.933 261.731C204.728 261.487 204.625 261.141 204.625 260.691V257.415H203.663V256.717H204.625V255.438H205.528ZM35.665 274H34.7617V268.717H35.665V274ZM34.6885 267.315C34.6885 267.169 34.7324 267.045 34.8203 266.944C34.9115 266.843 35.0449 266.793 35.2207 266.793C35.3965 266.793 35.5299 266.843 35.6211 266.944C35.7122 267.045 35.7578 267.169 35.7578 267.315C35.7578 267.462 35.7122 267.584 35.6211 267.682C35.5299 267.779 35.3965 267.828 35.2207 267.828C35.0449 267.828 34.9115 267.779 34.8203 267.682C34.7324 267.584 34.6885 267.462 34.6885 267.315ZM40.1914 272.599C40.1914 272.354 40.0986 272.166 39.9131 272.032C39.7308 271.896 39.4102 271.778 38.9512 271.681C38.4954 271.583 38.1325 271.466 37.8623 271.329C37.5954 271.192 37.3968 271.03 37.2666 270.841C37.1396 270.652 37.0762 270.427 37.0762 270.167C37.0762 269.734 37.2585 269.368 37.623 269.068C37.9909 268.769 38.4596 268.619 39.0293 268.619C39.6283 268.619 40.1133 268.774 40.4844 269.083C40.8587 269.392 41.0459 269.788 41.0459 270.27H40.1377C40.1377 270.022 40.0319 269.809 39.8203 269.63C39.612 269.451 39.3483 269.361 39.0293 269.361C38.7005 269.361 38.4434 269.433 38.2578 269.576C38.0723 269.719 37.9795 269.907 37.9795 270.138C37.9795 270.356 38.0658 270.52 38.2383 270.631C38.4108 270.742 38.7217 270.847 39.1709 270.948C39.6234 271.049 39.9896 271.17 40.2695 271.31C40.5495 271.45 40.7562 271.619 40.8896 271.817C41.0264 272.013 41.0947 272.252 41.0947 272.535C41.0947 273.007 40.9059 273.386 40.5283 273.673C40.1507 273.956 39.6608 274.098 39.0586 274.098C38.6354 274.098 38.2611 274.023 37.9355 273.873C37.61 273.723 37.3545 273.515 37.1689 273.248C36.9867 272.978 36.8955 272.687 36.8955 272.374H37.7988C37.8151 272.677 37.9355 272.918 38.1602 273.097C38.388 273.272 38.6875 273.36 39.0586 273.36C39.4004 273.36 39.6738 273.292 39.8789 273.155C40.0872 273.015 40.1914 272.83 40.1914 272.599ZM45.9775 267.438V268.717H46.9639V269.415H45.9775V272.691C45.9775 272.903 46.0215 273.062 46.1094 273.17C46.1973 273.274 46.347 273.326 46.5586 273.326C46.6628 273.326 46.806 273.307 46.9883 273.268V274C46.7507 274.065 46.5195 274.098 46.2949 274.098C45.8913 274.098 45.5869 273.976 45.3818 273.731C45.1768 273.487 45.0742 273.141 45.0742 272.691V269.415H44.1123V268.717H45.0742V267.438H45.9775ZM50.5771 269.527C50.4404 269.505 50.2923 269.493 50.1328 269.493C49.5404 269.493 49.1383 269.745 48.9268 270.25V274H48.0234V268.717H48.9023L48.917 269.327C49.2132 268.855 49.6331 268.619 50.1768 268.619C50.3525 268.619 50.486 268.642 50.5771 268.688V269.527ZM53.5068 274.098C52.7907 274.098 52.208 273.863 51.7588 273.395C51.3096 272.923 51.085 272.293 51.085 271.505V271.339C51.085 270.815 51.1842 270.348 51.3828 269.938C51.5846 269.524 51.8646 269.202 52.2227 268.971C52.584 268.736 52.9746 268.619 53.3945 268.619C54.0814 268.619 54.6152 268.845 54.9961 269.298C55.377 269.75 55.5674 270.398 55.5674 271.241V271.617H51.9883C52.0013 272.138 52.1527 272.56 52.4424 272.882C52.7354 273.201 53.1064 273.36 53.5557 273.36C53.8747 273.36 54.1449 273.295 54.3662 273.165C54.5876 273.035 54.7812 272.862 54.9473 272.647L55.499 273.077C55.0563 273.757 54.3923 274.098 53.5068 274.098ZM53.3945 269.361C53.0299 269.361 52.724 269.495 52.4766 269.762C52.2292 270.025 52.0762 270.396 52.0176 270.875H54.6641V270.807C54.638 270.348 54.5143 269.993 54.293 269.742C54.0716 269.488 53.7721 269.361 53.3945 269.361ZM59.8789 274C59.8268 273.896 59.7845 273.71 59.752 273.443C59.332 273.88 58.8307 274.098 58.248 274.098C57.7272 274.098 57.2992 273.951 56.9639 273.658C56.6318 273.362 56.4658 272.988 56.4658 272.535C56.4658 271.985 56.6742 271.559 57.0908 271.256C57.5107 270.95 58.0999 270.797 58.8584 270.797H59.7373V270.382C59.7373 270.066 59.6429 269.815 59.4541 269.63C59.2653 269.441 58.987 269.347 58.6191 269.347C58.2969 269.347 58.0267 269.428 57.8086 269.591C57.5905 269.754 57.4814 269.951 57.4814 270.182H56.5732C56.5732 269.918 56.666 269.664 56.8516 269.42C57.0404 269.173 57.2943 268.977 57.6133 268.834C57.9355 268.691 58.2887 268.619 58.6729 268.619C59.2816 268.619 59.7585 268.772 60.1035 269.078C60.4486 269.381 60.6276 269.799 60.6406 270.333V272.765C60.6406 273.25 60.7025 273.635 60.8262 273.922V274H59.8789ZM58.3799 273.312C58.6631 273.312 58.9316 273.238 59.1855 273.092C59.4395 272.945 59.6234 272.755 59.7373 272.521V271.437H59.0293C57.9225 271.437 57.3691 271.76 57.3691 272.408C57.3691 272.691 57.4635 272.913 57.6523 273.072C57.8411 273.232 58.0837 273.312 58.3799 273.312ZM63.2822 267.438V268.717H64.2686V269.415H63.2822V272.691C63.2822 272.903 63.3262 273.062 63.4141 273.17C63.502 273.274 63.6517 273.326 63.8633 273.326C63.9674 273.326 64.1107 273.307 64.293 273.268V274C64.0553 274.065 63.8242 274.098 63.5996 274.098C63.196 274.098 62.8916 273.976 62.6865 273.731C62.4814 273.487 62.3789 273.141 62.3789 272.691V269.415H61.417V268.717H62.3789V267.438H63.2822ZM67.5205 274.098C66.8044 274.098 66.2217 273.863 65.7725 273.395C65.3232 272.923 65.0986 272.293 65.0986 271.505V271.339C65.0986 270.815 65.1979 270.348 65.3965 269.938C65.5983 269.524 65.8783 269.202 66.2363 268.971C66.5977 268.736 66.9883 268.619 67.4082 268.619C68.0951 268.619 68.6289 268.845 69.0098 269.298C69.3906 269.75 69.5811 270.398 69.5811 271.241V271.617H66.002C66.015 272.138 66.1663 272.56 66.4561 272.882C66.749 273.201 67.1201 273.36 67.5693 273.36C67.8883 273.36 68.1585 273.295 68.3799 273.165C68.6012 273.035 68.7949 272.862 68.9609 272.647L69.5127 273.077C69.07 273.757 68.4059 274.098 67.5205 274.098ZM67.4082 269.361C67.0436 269.361 66.7376 269.495 66.4902 269.762C66.2428 270.025 66.0898 270.396 66.0312 270.875H68.6777V270.807C68.6517 270.348 68.528 269.993 68.3066 269.742C68.0853 269.488 67.7858 269.361 67.4082 269.361ZM70.4111 271.314C70.4111 270.504 70.6032 269.853 70.9873 269.361C71.3714 268.867 71.8743 268.619 72.4961 268.619C73.1146 268.619 73.6045 268.831 73.9658 269.254V266.5H74.8691V274H74.0391L73.9951 273.434C73.6338 273.876 73.1309 274.098 72.4863 274.098C71.8743 274.098 71.3747 273.847 70.9873 273.346C70.6032 272.844 70.4111 272.19 70.4111 271.383V271.314ZM71.3145 271.417C71.3145 272.016 71.4382 272.485 71.6855 272.823C71.9329 273.162 72.2747 273.331 72.7109 273.331C73.2839 273.331 73.7021 273.074 73.9658 272.56V270.133C73.6956 269.635 73.2806 269.386 72.7207 269.386C72.278 269.386 71.9329 269.557 71.6855 269.898C71.4382 270.24 71.3145 270.746 71.3145 271.417ZM82.0176 274C81.9655 273.896 81.9232 273.71 81.8906 273.443C81.4707 273.88 80.9694 274.098 80.3867 274.098C79.8659 274.098 79.4378 273.951 79.1025 273.658C78.7705 273.362 78.6045 272.988 78.6045 272.535C78.6045 271.985 78.8128 271.559 79.2295 271.256C79.6494 270.95 80.2386 270.797 80.9971 270.797H81.876V270.382C81.876 270.066 81.7816 269.815 81.5928 269.63C81.404 269.441 81.1257 269.347 80.7578 269.347C80.4355 269.347 80.1654 269.428 79.9473 269.591C79.7292 269.754 79.6201 269.951 79.6201 270.182H78.7119C78.7119 269.918 78.8047 269.664 78.9902 269.42C79.179 269.173 79.4329 268.977 79.752 268.834C80.0742 268.691 80.4274 268.619 80.8115 268.619C81.4202 268.619 81.8971 268.772 82.2422 269.078C82.5872 269.381 82.7663 269.799 82.7793 270.333V272.765C82.7793 273.25 82.8411 273.635 82.9648 273.922V274H82.0176ZM80.5186 273.312C80.8018 273.312 81.0703 273.238 81.3242 273.092C81.5781 272.945 81.762 272.755 81.876 272.521V271.437H81.168C80.0612 271.437 79.5078 271.76 79.5078 272.408C79.5078 272.691 79.6022 272.913 79.791 273.072C79.9798 273.232 80.2223 273.312 80.5186 273.312ZM87.2715 272.599C87.2715 272.354 87.1787 272.166 86.9932 272.032C86.8109 271.896 86.4902 271.778 86.0312 271.681C85.5755 271.583 85.2126 271.466 84.9424 271.329C84.6755 271.192 84.4769 271.03 84.3467 270.841C84.2197 270.652 84.1562 270.427 84.1562 270.167C84.1562 269.734 84.3385 269.368 84.7031 269.068C85.071 268.769 85.5397 268.619 86.1094 268.619C86.7083 268.619 87.1934 268.774 87.5645 269.083C87.9388 269.392 88.126 269.788 88.126 270.27H87.2178C87.2178 270.022 87.112 269.809 86.9004 269.63C86.6921 269.451 86.4284 269.361 86.1094 269.361C85.7806 269.361 85.5234 269.433 85.3379 269.576C85.1523 269.719 85.0596 269.907 85.0596 270.138C85.0596 270.356 85.1458 270.52 85.3184 270.631C85.4909 270.742 85.8018 270.847 86.251 270.948C86.7035 271.049 87.0697 271.17 87.3496 271.31C87.6296 271.45 87.8363 271.619 87.9697 271.817C88.1064 272.013 88.1748 272.252 88.1748 272.535C88.1748 273.007 87.986 273.386 87.6084 273.673C87.2308 273.956 86.7409 274.098 86.1387 274.098C85.7155 274.098 85.3411 274.023 85.0156 273.873C84.6901 273.723 84.4346 273.515 84.249 273.248C84.0667 272.978 83.9756 272.687 83.9756 272.374H84.8789C84.8952 272.677 85.0156 272.918 85.2402 273.097C85.4681 273.272 85.7676 273.36 86.1387 273.36C86.4805 273.36 86.7539 273.292 86.959 273.155C87.1673 273.015 87.2715 272.83 87.2715 272.599ZM96.3975 274H91.7393V273.351L94.2002 270.616C94.5648 270.203 94.8154 269.868 94.9521 269.61C95.0921 269.35 95.1621 269.081 95.1621 268.805C95.1621 268.434 95.0498 268.129 94.8252 267.892C94.6006 267.654 94.3011 267.535 93.9268 267.535C93.4775 267.535 93.1276 267.664 92.877 267.921C92.6296 268.175 92.5059 268.53 92.5059 268.985H91.6025C91.6025 268.331 91.8125 267.802 92.2324 267.398C92.6556 266.995 93.2204 266.793 93.9268 266.793C94.5876 266.793 95.11 266.967 95.4941 267.315C95.8783 267.66 96.0703 268.121 96.0703 268.697C96.0703 269.397 95.6243 270.23 94.7324 271.197L92.8281 273.263H96.3975V274ZM99.3271 271.349H96.9443V270.611H99.3271V271.349ZM104.674 271.417C104.674 272.221 104.49 272.869 104.122 273.36C103.754 273.852 103.256 274.098 102.628 274.098C101.987 274.098 101.482 273.894 101.114 273.487V276.031H100.211V268.717H101.036L101.08 269.303C101.448 268.847 101.959 268.619 102.613 268.619C103.248 268.619 103.749 268.858 104.117 269.337C104.488 269.815 104.674 270.481 104.674 271.334V271.417ZM103.771 271.314C103.771 270.719 103.644 270.248 103.39 269.903C103.136 269.558 102.787 269.386 102.345 269.386C101.798 269.386 101.388 269.628 101.114 270.113V272.638C101.384 273.119 101.798 273.36 102.354 273.36C102.787 273.36 103.131 273.189 103.385 272.848C103.642 272.503 103.771 271.992 103.771 271.314ZM105.587 271.31C105.587 270.792 105.688 270.326 105.89 269.913C106.095 269.5 106.378 269.181 106.739 268.956C107.104 268.731 107.519 268.619 107.984 268.619C108.704 268.619 109.285 268.868 109.728 269.366C110.174 269.864 110.396 270.527 110.396 271.354V271.417C110.396 271.931 110.297 272.394 110.099 272.804C109.903 273.211 109.622 273.528 109.254 273.756C108.889 273.984 108.469 274.098 107.994 274.098C107.278 274.098 106.697 273.849 106.251 273.351C105.808 272.853 105.587 272.193 105.587 271.373V271.31ZM106.495 271.417C106.495 272.003 106.63 272.473 106.9 272.828C107.174 273.183 107.538 273.36 107.994 273.36C108.453 273.36 108.818 273.181 109.088 272.823C109.358 272.462 109.493 271.957 109.493 271.31C109.493 270.73 109.355 270.261 109.078 269.903C108.805 269.542 108.44 269.361 107.984 269.361C107.538 269.361 107.179 269.539 106.905 269.894C106.632 270.248 106.495 270.756 106.495 271.417ZM112.511 274H111.607V268.717H112.511V274ZM111.534 267.315C111.534 267.169 111.578 267.045 111.666 266.944C111.757 266.843 111.891 266.793 112.066 266.793C112.242 266.793 112.376 266.843 112.467 266.944C112.558 267.045 112.604 267.169 112.604 267.315C112.604 267.462 112.558 267.584 112.467 267.682C112.376 267.779 112.242 267.828 112.066 267.828C111.891 267.828 111.757 267.779 111.666 267.682C111.578 267.584 111.534 267.462 111.534 267.315ZM114.815 268.717L114.845 269.381C115.248 268.873 115.776 268.619 116.427 268.619C117.543 268.619 118.106 269.249 118.116 270.509V274H117.213V270.504C117.21 270.123 117.122 269.841 116.949 269.659C116.78 269.477 116.515 269.386 116.153 269.386C115.86 269.386 115.603 269.464 115.382 269.62C115.16 269.776 114.988 269.981 114.864 270.235V274H113.961V268.717H114.815ZM120.704 267.438V268.717H121.69V269.415H120.704V272.691C120.704 272.903 120.748 273.062 120.836 273.17C120.924 273.274 121.074 273.326 121.285 273.326C121.389 273.326 121.533 273.307 121.715 273.268V274C121.477 274.065 121.246 274.098 121.021 274.098C120.618 274.098 120.313 273.976 120.108 273.731C119.903 273.487 119.801 273.141 119.801 272.691V269.415H118.839V268.717H119.801V267.438H120.704ZM122.721 275.416L122.208 275.064C122.514 274.638 122.674 274.199 122.687 273.746V272.931H123.57V273.639C123.57 273.967 123.489 274.296 123.326 274.625C123.167 274.954 122.965 275.217 122.721 275.416ZM128.043 273.263H131.134V274H126.939V273.336L129.854 269.464H126.983V268.717H130.987V269.356L128.043 273.263ZM134.269 274.098C133.552 274.098 132.97 273.863 132.521 273.395C132.071 272.923 131.847 272.293 131.847 271.505V271.339C131.847 270.815 131.946 270.348 132.145 269.938C132.346 269.524 132.626 269.202 132.984 268.971C133.346 268.736 133.736 268.619 134.156 268.619C134.843 268.619 135.377 268.845 135.758 269.298C136.139 269.75 136.329 270.398 136.329 271.241V271.617H132.75C132.763 272.138 132.914 272.56 133.204 272.882C133.497 273.201 133.868 273.36 134.317 273.36C134.636 273.36 134.907 273.295 135.128 273.165C135.349 273.035 135.543 272.862 135.709 272.647L136.261 273.077C135.818 273.757 135.154 274.098 134.269 274.098ZM134.156 269.361C133.792 269.361 133.486 269.495 133.238 269.762C132.991 270.025 132.838 270.396 132.779 270.875H135.426V270.807C135.4 270.348 135.276 269.993 135.055 269.742C134.833 269.488 134.534 269.361 134.156 269.361ZM139.933 269.527C139.796 269.505 139.648 269.493 139.488 269.493C138.896 269.493 138.494 269.745 138.282 270.25V274H137.379V268.717H138.258L138.272 269.327C138.569 268.855 138.989 268.619 139.532 268.619C139.708 268.619 139.841 268.642 139.933 268.688V269.527ZM140.431 271.31C140.431 270.792 140.532 270.326 140.733 269.913C140.938 269.5 141.222 269.181 141.583 268.956C141.948 268.731 142.363 268.619 142.828 268.619C143.548 268.619 144.129 268.868 144.571 269.366C145.017 269.864 145.24 270.527 145.24 271.354V271.417C145.24 271.931 145.141 272.394 144.942 272.804C144.747 273.211 144.465 273.528 144.098 273.756C143.733 273.984 143.313 274.098 142.838 274.098C142.122 274.098 141.541 273.849 141.095 273.351C140.652 272.853 140.431 272.193 140.431 271.373V271.31ZM141.339 271.417C141.339 272.003 141.474 272.473 141.744 272.828C142.018 273.183 142.382 273.36 142.838 273.36C143.297 273.36 143.661 273.181 143.932 272.823C144.202 272.462 144.337 271.957 144.337 271.31C144.337 270.73 144.199 270.261 143.922 269.903C143.648 269.542 143.284 269.361 142.828 269.361C142.382 269.361 142.022 269.539 141.749 269.894C141.476 270.248 141.339 270.756 141.339 271.417ZM152.115 274C152.063 273.896 152.021 273.71 151.988 273.443C151.568 273.88 151.067 274.098 150.484 274.098C149.964 274.098 149.535 273.951 149.2 273.658C148.868 273.362 148.702 272.988 148.702 272.535C148.702 271.985 148.91 271.559 149.327 271.256C149.747 270.95 150.336 270.797 151.095 270.797H151.974V270.382C151.974 270.066 151.879 269.815 151.69 269.63C151.502 269.441 151.223 269.347 150.855 269.347C150.533 269.347 150.263 269.428 150.045 269.591C149.827 269.754 149.718 269.951 149.718 270.182H148.81C148.81 269.918 148.902 269.664 149.088 269.42C149.277 269.173 149.531 268.977 149.85 268.834C150.172 268.691 150.525 268.619 150.909 268.619C151.518 268.619 151.995 268.772 152.34 269.078C152.685 269.381 152.864 269.799 152.877 270.333V272.765C152.877 273.25 152.939 273.635 153.062 273.922V274H152.115ZM150.616 273.312C150.899 273.312 151.168 273.238 151.422 273.092C151.676 272.945 151.86 272.755 151.974 272.521V271.437H151.266C150.159 271.437 149.605 271.76 149.605 272.408C149.605 272.691 149.7 272.913 149.889 273.072C150.077 273.232 150.32 273.312 150.616 273.312ZM156.847 269.527C156.71 269.505 156.562 269.493 156.402 269.493C155.81 269.493 155.408 269.745 155.196 270.25V274H154.293V268.717H155.172L155.187 269.327C155.483 268.855 155.903 268.619 156.446 268.619C156.622 268.619 156.756 268.642 156.847 268.688V269.527ZM159.776 274.098C159.06 274.098 158.478 273.863 158.028 273.395C157.579 272.923 157.354 272.293 157.354 271.505V271.339C157.354 270.815 157.454 270.348 157.652 269.938C157.854 269.524 158.134 269.202 158.492 268.971C158.854 268.736 159.244 268.619 159.664 268.619C160.351 268.619 160.885 268.845 161.266 269.298C161.646 269.75 161.837 270.398 161.837 271.241V271.617H158.258C158.271 272.138 158.422 272.56 158.712 272.882C159.005 273.201 159.376 273.36 159.825 273.36C160.144 273.36 160.414 273.295 160.636 273.165C160.857 273.035 161.051 272.862 161.217 272.647L161.769 273.077C161.326 273.757 160.662 274.098 159.776 274.098ZM159.664 269.361C159.299 269.361 158.993 269.495 158.746 269.762C158.499 270.025 158.346 270.396 158.287 270.875H160.934V270.807C160.908 270.348 160.784 269.993 160.562 269.742C160.341 269.488 160.042 269.361 159.664 269.361ZM166.148 274C166.096 273.896 166.054 273.71 166.021 273.443C165.602 273.88 165.1 274.098 164.518 274.098C163.997 274.098 163.569 273.951 163.233 273.658C162.901 273.362 162.735 272.988 162.735 272.535C162.735 271.985 162.944 271.559 163.36 271.256C163.78 270.95 164.369 270.797 165.128 270.797H166.007V270.382C166.007 270.066 165.912 269.815 165.724 269.63C165.535 269.441 165.257 269.347 164.889 269.347C164.566 269.347 164.296 269.428 164.078 269.591C163.86 269.754 163.751 269.951 163.751 270.182H162.843C162.843 269.918 162.936 269.664 163.121 269.42C163.31 269.173 163.564 268.977 163.883 268.834C164.205 268.691 164.558 268.619 164.942 268.619C165.551 268.619 166.028 268.772 166.373 269.078C166.718 269.381 166.897 269.799 166.91 270.333V272.765C166.91 273.25 166.972 273.635 167.096 273.922V274H166.148ZM164.649 273.312C164.933 273.312 165.201 273.238 165.455 273.092C165.709 272.945 165.893 272.755 166.007 272.521V271.437H165.299C164.192 271.437 163.639 271.76 163.639 272.408C163.639 272.691 163.733 272.913 163.922 273.072C164.111 273.232 164.353 273.312 164.649 273.312ZM175.27 271.417C175.27 272.221 175.086 272.869 174.718 273.36C174.35 273.852 173.852 274.098 173.224 274.098C172.582 274.098 172.078 273.894 171.71 273.487V276.031H170.807V268.717H171.632L171.676 269.303C172.044 268.847 172.555 268.619 173.209 268.619C173.844 268.619 174.345 268.858 174.713 269.337C175.084 269.815 175.27 270.481 175.27 271.334V271.417ZM174.366 271.314C174.366 270.719 174.239 270.248 173.985 269.903C173.731 269.558 173.383 269.386 172.94 269.386C172.394 269.386 171.983 269.628 171.71 270.113V272.638C171.98 273.119 172.394 273.36 172.95 273.36C173.383 273.36 173.727 273.189 173.98 272.848C174.238 272.503 174.366 271.992 174.366 271.314ZM176.183 271.31C176.183 270.792 176.284 270.326 176.485 269.913C176.69 269.5 176.974 269.181 177.335 268.956C177.7 268.731 178.115 268.619 178.58 268.619C179.299 268.619 179.881 268.868 180.323 269.366C180.769 269.864 180.992 270.527 180.992 271.354V271.417C180.992 271.931 180.893 272.394 180.694 272.804C180.499 273.211 180.217 273.528 179.85 273.756C179.485 273.984 179.065 274.098 178.59 274.098C177.874 274.098 177.293 273.849 176.847 273.351C176.404 272.853 176.183 272.193 176.183 271.373V271.31ZM177.091 271.417C177.091 272.003 177.226 272.473 177.496 272.828C177.77 273.183 178.134 273.36 178.59 273.36C179.049 273.36 179.413 273.181 179.684 272.823C179.954 272.462 180.089 271.957 180.089 271.31C180.089 270.73 179.951 270.261 179.674 269.903C179.4 269.542 179.036 269.361 178.58 269.361C178.134 269.361 177.774 269.539 177.501 269.894C177.228 270.248 177.091 270.756 177.091 271.417ZM183.106 274H182.203V266.5H183.106V274ZM186.285 272.677L187.516 268.717H188.482L186.358 274.815C186.03 275.694 185.507 276.134 184.791 276.134L184.62 276.119L184.283 276.056V275.323L184.527 275.343C184.833 275.343 185.071 275.281 185.24 275.157C185.413 275.034 185.554 274.807 185.665 274.479L185.865 273.941L183.98 268.717H184.967L186.285 272.677ZM189.01 271.314C189.01 270.491 189.2 269.837 189.581 269.352C189.962 268.863 190.466 268.619 191.095 268.619C191.739 268.619 192.242 268.847 192.604 269.303L192.647 268.717H193.473V273.873C193.473 274.557 193.269 275.095 192.862 275.489C192.459 275.883 191.915 276.08 191.231 276.08C190.851 276.08 190.478 275.999 190.113 275.836C189.749 275.673 189.47 275.45 189.278 275.167L189.747 274.625C190.134 275.104 190.608 275.343 191.168 275.343C191.607 275.343 191.949 275.219 192.193 274.972C192.441 274.724 192.564 274.376 192.564 273.927V273.473C192.203 273.889 191.71 274.098 191.085 274.098C190.466 274.098 189.965 273.849 189.581 273.351C189.2 272.853 189.01 272.174 189.01 271.314ZM189.918 271.417C189.918 272.013 190.04 272.481 190.284 272.823C190.528 273.162 190.87 273.331 191.31 273.331C191.879 273.331 192.298 273.072 192.564 272.555V270.143C192.288 269.638 191.873 269.386 191.319 269.386C190.88 269.386 190.536 269.557 190.289 269.898C190.042 270.24 189.918 270.746 189.918 271.417ZM194.601 271.31C194.601 270.792 194.701 270.326 194.903 269.913C195.108 269.5 195.392 269.181 195.753 268.956C196.118 268.731 196.533 268.619 196.998 268.619C197.717 268.619 198.299 268.868 198.741 269.366C199.187 269.864 199.41 270.527 199.41 271.354V271.417C199.41 271.931 199.311 272.394 199.112 272.804C198.917 273.211 198.635 273.528 198.268 273.756C197.903 273.984 197.483 274.098 197.008 274.098C196.292 274.098 195.711 273.849 195.265 273.351C194.822 272.853 194.601 272.193 194.601 271.373V271.31ZM195.509 271.417C195.509 272.003 195.644 272.473 195.914 272.828C196.188 273.183 196.552 273.36 197.008 273.36C197.467 273.36 197.831 273.181 198.102 272.823C198.372 272.462 198.507 271.957 198.507 271.31C198.507 270.73 198.368 270.261 198.092 269.903C197.818 269.542 197.454 269.361 196.998 269.361C196.552 269.361 196.192 269.539 195.919 269.894C195.646 270.248 195.509 270.756 195.509 271.417ZM201.397 268.717L201.427 269.381C201.83 268.873 202.358 268.619 203.009 268.619C204.125 268.619 204.688 269.249 204.698 270.509V274H203.795V270.504C203.792 270.123 203.704 269.841 203.531 269.659C203.362 269.477 203.097 269.386 202.735 269.386C202.442 269.386 202.185 269.464 201.964 269.62C201.743 269.776 201.57 269.981 201.446 270.235V274H200.543V268.717H201.397ZM206.031 275.416L205.519 275.064C205.825 274.638 205.984 274.199 205.997 273.746V272.931H206.881V273.639C206.881 273.967 206.799 274.296 206.637 274.625C206.477 274.954 206.275 275.217 206.031 275.416ZM35.9092 279.438V280.717H36.8955V281.415H35.9092V284.691C35.9092 284.903 35.9531 285.062 36.041 285.17C36.1289 285.274 36.2786 285.326 36.4902 285.326C36.5944 285.326 36.7376 285.307 36.9199 285.268V286C36.6823 286.065 36.4512 286.098 36.2266 286.098C35.8229 286.098 35.5186 285.976 35.3135 285.731C35.1084 285.487 35.0059 285.141 35.0059 284.691V281.415H34.0439V280.717H35.0059V279.438H35.9092ZM38.8584 281.356C39.2588 280.865 39.7796 280.619 40.4209 280.619C41.5374 280.619 42.1006 281.249 42.1104 282.509V286H41.207V282.504C41.2038 282.123 41.1159 281.841 40.9434 281.659C40.7741 281.477 40.5088 281.386 40.1475 281.386C39.8545 281.386 39.5973 281.464 39.376 281.62C39.1546 281.776 38.9821 281.981 38.8584 282.235V286H37.9551V278.5H38.8584V281.356ZM46.7246 286C46.6725 285.896 46.6302 285.71 46.5977 285.443C46.1777 285.88 45.6764 286.098 45.0938 286.098C44.5729 286.098 44.1449 285.951 43.8096 285.658C43.4775 285.362 43.3115 284.988 43.3115 284.535C43.3115 283.985 43.5199 283.559 43.9365 283.256C44.3564 282.95 44.9456 282.797 45.7041 282.797H46.583V282.382C46.583 282.066 46.4886 281.815 46.2998 281.63C46.111 281.441 45.8327 281.347 45.4648 281.347C45.1426 281.347 44.8724 281.428 44.6543 281.591C44.4362 281.754 44.3271 281.951 44.3271 282.182H43.4189C43.4189 281.918 43.5117 281.664 43.6973 281.42C43.8861 281.173 44.14 280.977 44.459 280.834C44.7812 280.691 45.1344 280.619 45.5186 280.619C46.1273 280.619 46.6042 280.772 46.9492 281.078C47.2943 281.381 47.4733 281.799 47.4863 282.333V284.765C47.4863 285.25 47.5482 285.635 47.6719 285.922V286H46.7246ZM45.2256 285.312C45.5088 285.312 45.7773 285.238 46.0312 285.092C46.2852 284.945 46.4691 284.755 46.583 284.521V283.437H45.875C44.7682 283.437 44.2148 283.76 44.2148 284.408C44.2148 284.691 44.3092 284.913 44.498 285.072C44.6868 285.232 44.9294 285.312 45.2256 285.312ZM50.1279 279.438V280.717H51.1143V281.415H50.1279V284.691C50.1279 284.903 50.1719 285.062 50.2598 285.17C50.3477 285.274 50.4974 285.326 50.709 285.326C50.8132 285.326 50.9564 285.307 51.1387 285.268V286C50.901 286.065 50.6699 286.098 50.4453 286.098C50.0417 286.098 49.7373 285.976 49.5322 285.731C49.3271 285.487 49.2246 285.141 49.2246 284.691V281.415H48.2627V280.717H49.2246V279.438H50.1279ZM55.5576 281.356C55.958 280.865 56.4788 280.619 57.1201 280.619C58.2367 280.619 58.7998 281.249 58.8096 282.509V286H57.9062V282.504C57.903 282.123 57.8151 281.841 57.6426 281.659C57.4733 281.477 57.208 281.386 56.8467 281.386C56.5537 281.386 56.2965 281.464 56.0752 281.62C55.8538 281.776 55.6813 281.981 55.5576 282.235V286H54.6543V278.5H55.5576V281.356ZM63.4238 286C63.3717 285.896 63.3294 285.71 63.2969 285.443C62.877 285.88 62.3757 286.098 61.793 286.098C61.2721 286.098 60.8441 285.951 60.5088 285.658C60.1768 285.362 60.0107 284.988 60.0107 284.535C60.0107 283.985 60.2191 283.559 60.6357 283.256C61.0557 282.95 61.6449 282.797 62.4033 282.797H63.2822V282.382C63.2822 282.066 63.1878 281.815 62.999 281.63C62.8102 281.441 62.5319 281.347 62.1641 281.347C61.8418 281.347 61.5716 281.428 61.3535 281.591C61.1354 281.754 61.0264 281.951 61.0264 282.182H60.1182C60.1182 281.918 60.2109 281.664 60.3965 281.42C60.5853 281.173 60.8392 280.977 61.1582 280.834C61.4805 280.691 61.8337 280.619 62.2178 280.619C62.8265 280.619 63.3034 280.772 63.6484 281.078C63.9935 281.381 64.1725 281.799 64.1855 282.333V284.765C64.1855 285.25 64.2474 285.635 64.3711 285.922V286H63.4238ZM61.9248 285.312C62.208 285.312 62.4766 285.238 62.7305 285.092C62.9844 284.945 63.1683 284.755 63.2822 284.521V283.437H62.5742C61.4674 283.437 60.9141 283.76 60.9141 284.408C60.9141 284.691 61.0085 284.913 61.1973 285.072C61.3861 285.232 61.6286 285.312 61.9248 285.312ZM68.6777 284.599C68.6777 284.354 68.585 284.166 68.3994 284.032C68.2171 283.896 67.8965 283.778 67.4375 283.681C66.9818 283.583 66.6188 283.466 66.3486 283.329C66.0817 283.192 65.8831 283.03 65.7529 282.841C65.626 282.652 65.5625 282.427 65.5625 282.167C65.5625 281.734 65.7448 281.368 66.1094 281.068C66.4772 280.769 66.946 280.619 67.5156 280.619C68.1146 280.619 68.5996 280.774 68.9707 281.083C69.3451 281.392 69.5322 281.788 69.5322 282.27H68.624C68.624 282.022 68.5182 281.809 68.3066 281.63C68.0983 281.451 67.8346 281.361 67.5156 281.361C67.1868 281.361 66.9297 281.433 66.7441 281.576C66.5586 281.719 66.4658 281.907 66.4658 282.138C66.4658 282.356 66.5521 282.52 66.7246 282.631C66.8971 282.742 67.208 282.847 67.6572 282.948C68.1097 283.049 68.4759 283.17 68.7559 283.31C69.0358 283.45 69.2425 283.619 69.376 283.817C69.5127 284.013 69.5811 284.252 69.5811 284.535C69.5811 285.007 69.3923 285.386 69.0146 285.673C68.637 285.956 68.1471 286.098 67.5449 286.098C67.1217 286.098 66.7474 286.023 66.4219 285.873C66.0964 285.723 65.8408 285.515 65.6553 285.248C65.473 284.978 65.3818 284.687 65.3818 284.374H66.2852C66.3014 284.677 66.4219 284.918 66.6465 285.097C66.8743 285.272 67.1738 285.36 67.5449 285.36C67.8867 285.36 68.1602 285.292 68.3652 285.155C68.5736 285.015 68.6777 284.83 68.6777 284.599ZM74.4639 279.438V280.717H75.4502V281.415H74.4639V284.691C74.4639 284.903 74.5078 285.062 74.5957 285.17C74.6836 285.274 74.8333 285.326 75.0449 285.326C75.1491 285.326 75.2923 285.307 75.4746 285.268V286C75.237 286.065 75.0059 286.098 74.7812 286.098C74.3776 286.098 74.0732 285.976 73.8682 285.731C73.6631 285.487 73.5605 285.141 73.5605 284.691V281.415H72.5986V280.717H73.5605V279.438H74.4639ZM81.1875 284.755L82.2031 280.717H83.1064L81.5684 286H80.8359L79.5518 281.996L78.3018 286H77.5693L76.0361 280.717H76.9346L77.9746 284.672L79.2051 280.717H79.9326L81.1875 284.755ZM83.79 283.31C83.79 282.792 83.891 282.326 84.0928 281.913C84.2979 281.5 84.5811 281.181 84.9424 280.956C85.307 280.731 85.722 280.619 86.1875 280.619C86.9069 280.619 87.488 280.868 87.9307 281.366C88.3766 281.864 88.5996 282.527 88.5996 283.354V283.417C88.5996 283.931 88.5003 284.394 88.3018 284.804C88.1064 285.211 87.8249 285.528 87.457 285.756C87.0924 285.984 86.6725 286.098 86.1973 286.098C85.4811 286.098 84.9001 285.849 84.4541 285.351C84.0114 284.853 83.79 284.193 83.79 283.373V283.31ZM84.6982 283.417C84.6982 284.003 84.8333 284.473 85.1035 284.828C85.377 285.183 85.7415 285.36 86.1973 285.36C86.6562 285.36 87.0208 285.181 87.291 284.823C87.5612 284.462 87.6963 283.957 87.6963 283.31C87.6963 282.73 87.5579 282.261 87.2812 281.903C87.0078 281.542 86.6432 281.361 86.1875 281.361C85.7415 281.361 85.3818 281.539 85.1084 281.894C84.835 282.248 84.6982 282.756 84.6982 283.417ZM94.4053 286.098C93.6891 286.098 93.1064 285.863 92.6572 285.395C92.208 284.923 91.9834 284.293 91.9834 283.505V283.339C91.9834 282.815 92.0827 282.348 92.2812 281.938C92.4831 281.524 92.763 281.202 93.1211 280.971C93.4824 280.736 93.873 280.619 94.293 280.619C94.9798 280.619 95.5137 280.845 95.8945 281.298C96.2754 281.75 96.4658 282.398 96.4658 283.241V283.617H92.8867C92.8997 284.138 93.0511 284.56 93.3408 284.882C93.6338 285.201 94.0049 285.36 94.4541 285.36C94.7731 285.36 95.0433 285.295 95.2646 285.165C95.486 285.035 95.6797 284.862 95.8457 284.647L96.3975 285.077C95.9548 285.757 95.2907 286.098 94.4053 286.098ZM94.293 281.361C93.9284 281.361 93.6224 281.495 93.375 281.762C93.1276 282.025 92.9746 282.396 92.916 282.875H95.5625V282.807C95.5365 282.348 95.4128 281.993 95.1914 281.742C94.9701 281.488 94.6706 281.361 94.293 281.361ZM97.2959 283.314C97.2959 282.504 97.488 281.853 97.8721 281.361C98.2562 280.867 98.7591 280.619 99.3809 280.619C99.9993 280.619 100.489 280.831 100.851 281.254V278.5H101.754V286H100.924L100.88 285.434C100.519 285.876 100.016 286.098 99.3711 286.098C98.7591 286.098 98.2594 285.847 97.8721 285.346C97.488 284.844 97.2959 284.19 97.2959 283.383V283.314ZM98.1992 283.417C98.1992 284.016 98.3229 284.485 98.5703 284.823C98.8177 285.162 99.1595 285.331 99.5957 285.331C100.169 285.331 100.587 285.074 100.851 284.56V282.133C100.58 281.635 100.165 281.386 99.6055 281.386C99.1628 281.386 98.8177 281.557 98.5703 281.898C98.3229 282.24 98.1992 282.746 98.1992 283.417ZM102.945 283.314C102.945 282.491 103.136 281.837 103.517 281.352C103.897 280.863 104.402 280.619 105.03 280.619C105.675 280.619 106.178 280.847 106.539 281.303L106.583 280.717H107.408V285.873C107.408 286.557 107.205 287.095 106.798 287.489C106.394 287.883 105.851 288.08 105.167 288.08C104.786 288.08 104.413 287.999 104.049 287.836C103.684 287.673 103.406 287.45 103.214 287.167L103.683 286.625C104.07 287.104 104.544 287.343 105.104 287.343C105.543 287.343 105.885 287.219 106.129 286.972C106.376 286.724 106.5 286.376 106.5 285.927V285.473C106.139 285.889 105.646 286.098 105.021 286.098C104.402 286.098 103.901 285.849 103.517 285.351C103.136 284.853 102.945 284.174 102.945 283.314ZM103.854 283.417C103.854 284.013 103.976 284.481 104.22 284.823C104.464 285.162 104.806 285.331 105.245 285.331C105.815 285.331 106.233 285.072 106.5 284.555V282.143C106.223 281.638 105.808 281.386 105.255 281.386C104.815 281.386 104.472 281.557 104.225 281.898C103.977 282.24 103.854 282.746 103.854 283.417ZM110.968 286.098C110.252 286.098 109.669 285.863 109.22 285.395C108.771 284.923 108.546 284.293 108.546 283.505V283.339C108.546 282.815 108.645 282.348 108.844 281.938C109.046 281.524 109.326 281.202 109.684 280.971C110.045 280.736 110.436 280.619 110.855 280.619C111.542 280.619 112.076 280.845 112.457 281.298C112.838 281.75 113.028 282.398 113.028 283.241V283.617H109.449C109.462 284.138 109.614 284.56 109.903 284.882C110.196 285.201 110.567 285.36 111.017 285.36C111.336 285.36 111.606 285.295 111.827 285.165C112.049 285.035 112.242 284.862 112.408 284.647L112.96 285.077C112.517 285.757 111.853 286.098 110.968 286.098ZM110.855 281.361C110.491 281.361 110.185 281.495 109.938 281.762C109.69 282.025 109.537 282.396 109.479 282.875H112.125V282.807C112.099 282.348 111.975 281.993 111.754 281.742C111.533 281.488 111.233 281.361 110.855 281.361ZM117.154 284.599C117.154 284.354 117.062 284.166 116.876 284.032C116.694 283.896 116.373 283.778 115.914 283.681C115.458 283.583 115.095 283.466 114.825 283.329C114.558 283.192 114.36 283.03 114.229 282.841C114.103 282.652 114.039 282.427 114.039 282.167C114.039 281.734 114.221 281.368 114.586 281.068C114.954 280.769 115.423 280.619 115.992 280.619C116.591 280.619 117.076 280.774 117.447 281.083C117.822 281.392 118.009 281.788 118.009 282.27H117.101C117.101 282.022 116.995 281.809 116.783 281.63C116.575 281.451 116.311 281.361 115.992 281.361C115.663 281.361 115.406 281.433 115.221 281.576C115.035 281.719 114.942 281.907 114.942 282.138C114.942 282.356 115.029 282.52 115.201 282.631C115.374 282.742 115.685 282.847 116.134 282.948C116.586 283.049 116.952 283.17 117.232 283.31C117.512 283.45 117.719 283.619 117.853 283.817C117.989 284.013 118.058 284.252 118.058 284.535C118.058 285.007 117.869 285.386 117.491 285.673C117.114 285.956 116.624 286.098 116.021 286.098C115.598 286.098 115.224 286.023 114.898 285.873C114.573 285.723 114.317 285.515 114.132 285.248C113.95 284.978 113.858 284.687 113.858 284.374H114.762C114.778 284.677 114.898 284.918 115.123 285.097C115.351 285.272 115.65 285.36 116.021 285.36C116.363 285.36 116.637 285.292 116.842 285.155C117.05 285.015 117.154 284.83 117.154 284.599ZM119.254 285.526C119.254 285.37 119.299 285.24 119.391 285.136C119.485 285.032 119.625 284.979 119.811 284.979C119.996 284.979 120.136 285.032 120.23 285.136C120.328 285.24 120.377 285.37 120.377 285.526C120.377 285.676 120.328 285.801 120.23 285.902C120.136 286.003 119.996 286.054 119.811 286.054C119.625 286.054 119.485 286.003 119.391 285.902C119.299 285.801 119.254 285.676 119.254 285.526Z" fill="black"/>
<line x1="353.05" y1="110.502" x2="423.05" y2="117.502" stroke="black" stroke-dasharray="2 2"/>
<circle cx="370.5" cy="112.5" r="3.5" fill="#EE2626"/>
</svg>
