<svg width="554" height="268" viewBox="0 0 554 268" fill="none" xmlns="http://www.w3.org/2000/svg">
<g clip-path="url(#clip0_2_150)">
<rect width="554" height="268" fill="white"/>
<path d="M387 141L378.47 133.217L375.995 144.495L387 141ZM304.786 123.977L377.995 140.047L378.424 138.094L305.214 122.023L304.786 123.977Z" fill="#EE2626"/>
<circle cx="57" cy="127.597" r="34" stroke="black" stroke-width="2"/>
<line x1="56.5" y1="123.597" x2="56.5" y2="130.597" stroke="black"/>
<line x1="60" y1="127.097" x2="53" y2="127.097" stroke="black"/>
<line x1="152.852" y1="83.5256" x2="154.664" y2="90.2871" stroke="black"/>
<line x1="157.139" y1="86.0005" x2="150.377" y2="87.8122" stroke="black"/>
<line x1="177.44" y1="175.289" x2="179.252" y2="182.05" stroke="black"/>
<line x1="181.727" y1="177.764" x2="174.965" y2="179.575" stroke="black"/>
<line x1="305.5" y1="118.859" x2="305.5" y2="125.859" stroke="black"/>
<line x1="309" y1="122.359" x2="302" y2="122.359" stroke="black"/>
<line x1="402.317" y1="78.7261" x2="404.129" y2="85.4876" stroke="black"/>
<line x1="406.604" y1="81.2009" x2="399.842" y2="83.0127" stroke="black"/>
<line x1="426.905" y1="170.489" x2="428.717" y2="177.251" stroke="black"/>
<line x1="431.192" y1="172.964" x2="424.43" y2="174.776" stroke="black"/>
<path d="M179.496 70.3749C181.978 73.6157 183.799 77.3139 184.856 81.2583L209.031 171.483C210.088 175.427 210.36 179.54 209.832 183.588C209.303 187.635 207.984 191.537 205.951 195.071C203.917 198.605 201.209 201.701 197.981 204.184C194.752 206.666 191.067 208.486 187.135 209.539C183.203 210.593 179.102 210.86 175.065 210.324C171.028 209.788 167.134 208.461 163.606 206.417C160.078 204.373 156.985 201.653 154.504 198.413C152.022 195.172 150.201 191.474 149.144 187.529L124.969 97.3051C123.912 93.3607 123.64 89.2473 124.168 85.2L123.177 85.0705L124.168 85.2C124.697 81.1527 126.016 77.2507 128.049 73.7169C130.083 70.1831 132.791 67.0866 136.019 64.6041L135.41 63.8114L136.019 64.6041C139.248 62.1216 142.933 60.3017 146.865 59.2482C150.797 58.1946 154.898 57.9281 158.935 58.4638C162.972 58.9995 166.866 60.327 170.394 62.3707L170.895 61.5054L170.394 62.3707C173.922 64.4143 177.015 67.1341 179.496 70.3749Z" stroke="black" stroke-width="2"/>
<line x1="153.629" y1="86.4234" x2="178.217" y2="178.186" stroke="black" stroke-dasharray="4 4"/>
<path d="M454.996 41.373C460.199 48.1668 464.017 55.9194 466.232 64.1882L491.338 157.883C493.554 166.152 494.123 174.775 493.015 183.26C491.906 191.744 489.141 199.925 484.877 207.334C480.614 214.742 474.935 221.235 468.166 226.44C461.396 231.645 453.668 235.461 445.424 237.67C437.179 239.879 428.579 240.438 420.114 239.315C411.649 238.192 403.485 235.409 396.088 231.125C388.691 226.84 382.206 221.139 377.004 214.345C371.801 207.551 367.983 199.798 365.768 191.53L340.662 97.8347C338.446 89.5659 337.877 80.9429 338.985 72.4581C340.094 63.9733 342.859 55.793 347.123 48.3842C351.386 40.9754 357.065 34.4832 363.834 29.2782C370.604 24.0731 378.332 20.2571 386.576 18.048C394.821 15.8388 403.421 15.2797 411.886 16.4027C420.351 17.5256 428.515 20.3087 435.912 24.593C443.309 28.8774 449.794 34.5792 454.996 41.373Z" stroke="black" stroke-width="2"/>
<line x1="403.094" y1="81.6238" x2="427.682" y2="173.387" stroke="black" stroke-dasharray="4 4"/>
<path d="M58.7012 112.371H55.127L54.3242 114.597H53.1641L56.4219 106.066H57.4062L60.6699 114.597H59.5156L58.7012 112.371ZM55.4668 111.445H58.3672L56.9141 107.455L55.4668 111.445Z" fill="black"/>
<path d="M326.814 141.506L329.252 134.469H330.482L327.318 143H326.322L323.164 134.469H324.389L326.814 141.506ZM333.966 141.701H331.881L331.413 143H330.736L332.637 138.023H333.211L335.115 143H334.441L333.966 141.701ZM332.08 141.161H333.771L332.924 138.833L332.08 141.161ZM335.785 143V138.023H337.412C337.952 138.023 338.357 138.135 338.628 138.358C338.902 138.582 339.039 138.912 339.039 139.35C339.039 139.582 338.972 139.788 338.84 139.968C338.708 140.146 338.528 140.284 338.3 140.382C338.569 140.457 338.781 140.601 338.936 140.812C339.093 141.022 339.172 141.273 339.172 141.564C339.172 142.011 339.027 142.362 338.738 142.617C338.448 142.872 338.039 143 337.511 143H335.785ZM336.441 140.672V142.463H337.524C337.83 142.463 338.07 142.385 338.246 142.228C338.423 142.068 338.512 141.849 338.512 141.571C338.512 140.972 338.186 140.672 337.535 140.672H336.441ZM336.441 140.146H337.432C337.719 140.146 337.948 140.074 338.119 139.931C338.292 139.787 338.379 139.592 338.379 139.346C338.379 139.073 338.299 138.875 338.14 138.751C337.98 138.626 337.737 138.563 337.412 138.563H336.441V140.146Z" fill="black"/>
<path d="M68.8145 140.506L71.252 133.469H72.4824L69.3184 142H68.3223L65.1641 133.469H66.3887L68.8145 140.506ZM75.9663 140.701H73.8813L73.4131 142H72.7363L74.6367 137.023H75.2109L77.1147 142H76.4414L75.9663 140.701ZM74.0796 140.161H75.7715L74.9238 137.833L74.0796 140.161Z" fill="black"/>
<path d="M145.814 132.506L148.252 125.469H149.482L146.318 134H145.322L142.164 125.469H143.389L145.814 132.506ZM150.218 134V129.023H151.845C152.385 129.023 152.791 129.135 153.062 129.358C153.335 129.582 153.472 129.912 153.472 130.35C153.472 130.582 153.406 130.788 153.274 130.968C153.142 131.146 152.962 131.284 152.734 131.382C153.003 131.457 153.215 131.601 153.37 131.812C153.527 132.022 153.605 132.273 153.605 132.564C153.605 133.011 153.461 133.362 153.171 133.617C152.882 133.872 152.473 134 151.944 134H150.218ZM150.875 131.672V133.463H151.958C152.263 133.463 152.504 133.385 152.679 133.228C152.857 133.068 152.946 132.849 152.946 132.571C152.946 131.972 152.62 131.672 151.968 131.672H150.875ZM150.875 131.146H151.866C152.153 131.146 152.382 131.074 152.553 130.931C152.726 130.787 152.812 130.592 152.812 130.346C152.812 130.073 152.733 129.875 152.573 129.751C152.414 129.626 152.171 129.563 151.845 129.563H150.875V131.146Z" fill="black"/>
<path d="M173.99 134.597V126.066H176.779C177.705 126.066 178.4 126.257 178.865 126.64C179.334 127.023 179.568 127.589 179.568 128.339C179.568 128.738 179.455 129.091 179.229 129.4C179.002 129.705 178.693 129.941 178.303 130.109C178.764 130.238 179.127 130.484 179.393 130.847C179.662 131.207 179.797 131.636 179.797 132.136C179.797 132.902 179.549 133.504 179.053 133.941C178.557 134.379 177.855 134.597 176.949 134.597H173.99ZM175.115 130.607V133.677H176.973C177.496 133.677 177.908 133.543 178.209 133.273C178.514 133 178.666 132.625 178.666 132.148C178.666 131.121 178.107 130.607 176.99 130.607H175.115ZM175.115 129.705H176.814C177.307 129.705 177.699 129.582 177.992 129.336C178.289 129.089 178.438 128.755 178.438 128.334C178.438 127.865 178.301 127.525 178.027 127.314C177.754 127.099 177.338 126.992 176.779 126.992H175.115V129.705Z" fill="black"/>
<path d="M427.701 123.632H424.127L423.324 125.859H422.164L425.422 117.328H426.406L429.67 125.859H428.516L427.701 123.632ZM424.467 122.707H427.367L425.914 118.716L424.467 122.707ZM433.754 121.283H436.133V122.308H433.754V125.003H432.664V122.308H430.285V121.283H432.664V118.792H433.754V121.283ZM437.627 125.859V117.328H440.416C441.342 117.328 442.037 117.519 442.502 117.902C442.971 118.285 443.205 118.851 443.205 119.601C443.205 120 443.092 120.353 442.865 120.662C442.639 120.966 442.33 121.203 441.939 121.371C442.4 121.5 442.764 121.746 443.029 122.109C443.299 122.468 443.434 122.898 443.434 123.398C443.434 124.164 443.186 124.765 442.689 125.203C442.193 125.64 441.492 125.859 440.586 125.859H437.627ZM438.752 121.869V124.939H440.609C441.133 124.939 441.545 124.804 441.846 124.535C442.15 124.261 442.303 123.886 442.303 123.41C442.303 122.382 441.744 121.869 440.627 121.869H438.752ZM438.752 120.966H440.451C440.943 120.966 441.336 120.843 441.629 120.597C441.926 120.351 442.074 120.017 442.074 119.595C442.074 119.126 441.938 118.787 441.664 118.576C441.391 118.361 440.975 118.253 440.416 118.253H438.752V120.966Z" fill="black"/>
<path d="M112 118L106.618 115.91L107.499 121.616L112 118ZM57.0009 127L107.629 119.181L107.476 118.193L56.8483 126.012L57.0009 127Z" fill="black"/>
<path d="M139.729 109.026L141.224 114.603L145.306 110.521L139.729 109.026ZM167.249 135.839L143.265 111.855L142.558 112.562L166.542 136.546L167.249 135.839Z" fill="black"/>
<circle cx="350.5" cy="133.5" r="3.5" fill="#EE2626"/>
</g>
<defs>
<clipPath id="clip0_2_150">
<rect width="554" height="268" fill="white"/>
</clipPath>
</defs>
</svg>
