<svg width="922" height="462" viewBox="0 0 922 462" fill="none" xmlns="http://www.w3.org/2000/svg">
<rect width="922" height="462" fill="white"/>
<line x1="440.094" y1="263.221" x2="464.682" y2="354.984" stroke="#EE2626" stroke-dasharray="4 4"/>
<path d="M695 310V261L805 232L822 297V347L711.5 376.5L695 310Z" stroke="#EE2626" stroke-dasharray="4 4"/>
<circle cx="63" cy="92" r="34" stroke="black" stroke-width="2"/>
<circle cx="173" cy="92" r="59" stroke="black" stroke-width="2"/>
<line x1="62.5" y1="88" x2="62.5" y2="95" stroke="black"/>
<line x1="66" y1="91.5" x2="59" y2="91.5" stroke="black"/>
<line x1="172.5" y1="88" x2="172.5" y2="95" stroke="black"/>
<line x1="176" y1="91.5" x2="169" y2="91.5" stroke="black"/>
<circle cx="173" cy="311" r="94" stroke="#EE2626" stroke-width="2"/>
<line x1="62.5" y1="307" x2="62.5" y2="314" stroke="black"/>
<line x1="66" y1="310.5" x2="59" y2="310.5" stroke="black"/>
<line x1="172.5" y1="307" x2="172.5" y2="314" stroke="black"/>
<line x1="176" y1="310.5" x2="169" y2="310.5" stroke="black"/>
<circle cx="343" cy="93.5973" r="34" stroke="black" stroke-width="2"/>
<line x1="342.5" y1="89.5973" x2="342.5" y2="96.5973" stroke="black"/>
<line x1="346" y1="93.0973" x2="339" y2="93.0973" stroke="black"/>
<line x1="438.852" y1="49.5257" x2="440.664" y2="56.2872" stroke="black"/>
<line x1="443.139" y1="52.0005" x2="436.377" y2="53.8123" stroke="black"/>
<line x1="463.44" y1="141.289" x2="465.252" y2="148.05" stroke="black"/>
<line x1="467.727" y1="143.764" x2="460.965" y2="145.575" stroke="black"/>
<line x1="342.5" y1="300.456" x2="342.5" y2="307.456" stroke="black"/>
<line x1="346" y1="303.956" x2="339" y2="303.956" stroke="black"/>
<line x1="439.317" y1="260.323" x2="441.129" y2="267.085" stroke="black"/>
<line x1="443.604" y1="262.798" x2="436.842" y2="264.61" stroke="black"/>
<line x1="624.5" y1="61.718" x2="624.5" y2="68.718" stroke="black"/>
<line x1="628" y1="65.218" x2="621" y2="65.218" stroke="black"/>
<line x1="625.5" y1="250.718" x2="625.5" y2="257.718" stroke="black"/>
<line x1="629" y1="254.218" x2="622" y2="254.218" stroke="black"/>
<line x1="694.5" y1="258" x2="694.5" y2="265" stroke="black"/>
<line x1="698" y1="261.5" x2="691" y2="261.5" stroke="black"/>
<line x1="804.5" y1="228" x2="804.5" y2="235" stroke="black"/>
<line x1="808" y1="231.5" x2="801" y2="231.5" stroke="black"/>
<line x1="821.5" y1="293" x2="821.5" y2="300" stroke="black"/>
<line x1="825" y1="296.5" x2="818" y2="296.5" stroke="black"/>
<line x1="821.5" y1="343" x2="821.5" y2="350" stroke="black"/>
<line x1="825" y1="346.5" x2="818" y2="346.5" stroke="black"/>
<line x1="711.5" y1="373" x2="711.5" y2="380" stroke="black"/>
<line x1="715" y1="376.5" x2="708" y2="376.5" stroke="black"/>
<line x1="694.5" y1="306" x2="694.5" y2="313" stroke="black"/>
<line x1="698" y1="309.5" x2="691" y2="309.5" stroke="black"/>
<line x1="463.905" y1="352.086" x2="465.717" y2="358.848" stroke="black"/>
<line x1="468.192" y1="354.561" x2="461.43" y2="356.373" stroke="black"/>
<line x1="624.5" y1="114.718" x2="624.5" y2="121.718" stroke="black"/>
<line x1="628" y1="118.218" x2="621" y2="118.218" stroke="black"/>
<path d="M465.496 36.3749C467.978 39.6157 469.799 43.3139 470.856 47.2583L495.031 137.483C496.088 141.427 496.36 145.54 495.832 149.588C495.303 153.635 493.984 157.537 491.951 161.071C489.917 164.605 487.209 167.701 483.981 170.183C480.752 172.666 477.067 174.486 473.135 175.539C469.203 176.593 465.102 176.86 461.065 176.324C457.028 175.788 453.134 174.461 449.606 172.417C446.078 170.373 442.985 167.653 440.504 164.413C438.022 161.172 436.201 157.474 435.144 153.529L410.969 63.3051C409.912 59.3606 409.64 55.2473 410.168 51.2L409.177 51.0705L410.168 51.2C410.697 47.1527 412.016 43.2507 414.049 39.7169C416.083 36.1831 418.791 33.0866 422.019 30.6041L421.41 29.8114L422.019 30.6041C425.248 28.1216 428.933 26.3017 432.865 25.2481C436.797 24.1946 440.898 23.928 444.935 24.4638C448.972 24.9995 452.866 26.327 456.394 28.3706L456.895 27.5053L456.394 28.3706C459.922 30.4143 463.015 33.1341 465.496 36.3749Z" stroke="black" stroke-width="2"/>
<line x1="692.737" y1="68.7484" x2="694.548" y2="75.5099" stroke="black"/>
<line x1="697.023" y1="71.2233" x2="690.262" y2="73.035" stroke="black"/>
<line x1="439.629" y1="52.4235" x2="464.217" y2="144.186" stroke="black" stroke-dasharray="4 4"/>
<line x1="802.852" y1="39.2431" x2="804.664" y2="46.0045" stroke="black"/>
<line x1="807.139" y1="41.7179" x2="800.377" y2="43.5297" stroke="black"/>
<line x1="710.077" y1="133.465" x2="711.889" y2="140.227" stroke="black"/>
<line x1="714.364" y1="135.94" x2="707.603" y2="137.752" stroke="black"/>
<line x1="820.193" y1="103.96" x2="822.005" y2="110.722" stroke="black"/>
<line x1="824.48" y1="106.435" x2="817.718" y2="108.247" stroke="black"/>
<path d="M491.996 222.97C497.199 229.764 501.017 237.517 503.232 245.786L528.338 339.48C530.554 347.749 531.123 356.372 530.015 364.857C528.906 373.342 526.141 381.522 521.877 388.931C517.614 396.34 511.935 402.832 505.166 408.037C498.396 413.242 490.668 417.058 482.424 419.267C474.179 421.476 465.579 422.035 457.114 420.912C448.649 419.789 440.485 417.006 433.088 412.722C425.691 408.438 419.206 402.736 414.004 395.942C408.801 389.148 404.983 381.396 402.768 373.127L377.662 279.432C375.446 271.163 374.877 262.54 375.985 254.055C377.094 245.571 379.859 237.39 384.123 229.981C388.386 222.573 394.065 216.081 400.834 210.875C407.604 205.67 415.332 201.854 423.576 199.645C431.821 197.436 440.421 196.877 448.886 198C457.351 199.123 465.515 201.906 472.912 206.19C480.309 210.475 486.794 216.176 491.996 222.97Z" stroke="#EE2626" stroke-width="2"/>
<path d="M653.64 55.9112C655.198 59.6838 656 63.7274 656 67.811V118.718C656 122.802 655.198 126.845 653.64 130.618C652.082 134.39 649.798 137.818 646.919 140.705C644.041 143.592 640.623 145.882 636.862 147.445C633.101 149.007 629.071 149.811 625 149.811C620.929 149.811 616.899 149.007 613.138 147.445C609.377 145.882 605.959 143.592 603.081 140.705C600.202 137.818 597.918 134.39 596.36 130.618C594.802 126.845 594 122.802 594 118.718V67.811C594 63.7274 594.802 59.6838 596.36 55.9113L595.436 55.5295L596.36 55.9113C597.918 52.1387 600.202 48.711 603.081 45.8239C605.959 42.9367 609.377 40.6467 613.138 39.0844L612.754 38.1609L613.138 39.0844C616.899 37.522 620.929 36.718 625 36.718C629.071 36.718 633.101 37.522 636.862 39.0844C640.623 40.6467 644.041 42.9367 646.919 45.8239L647.627 45.1178L646.919 45.8239C649.798 48.711 652.082 52.1387 653.64 55.9112Z" stroke="black" stroke-width="2"/>
<line x1="624.5" y1="64.718" x2="624.5" y2="114.718" stroke="black" stroke-dasharray="4 4"/>
<rect x="671.951" y="58.7889" width="149" height="105" rx="19" transform="rotate(-15 671.951 58.7889)" stroke="black" stroke-width="2"/>
<rect x="693.642" y="72.1292" width="114" height="67" transform="rotate(-15 693.642 72.1292)" stroke="black" stroke-dasharray="4 4"/>
<path d="M64.7012 77.7734H61.127L60.3242 80H59.1641L62.4219 71.4688H63.4062L66.6699 80H65.5156L64.7012 77.7734ZM61.4668 76.8477H64.3672L62.9141 72.8574L61.4668 76.8477Z" fill="black"/>
<path d="M344.701 78.3707H341.127L340.324 80.5973H339.164L342.422 72.066H343.406L346.67 80.5973H345.516L344.701 78.3707ZM341.467 77.4449H344.367L342.914 73.4547L341.467 77.4449Z" fill="black"/>
<path d="M634.701 91.7736H631.127L630.324 94.0001H629.164L632.422 85.4689H633.406L636.67 94.0001H635.516L634.701 91.7736ZM631.467 90.8478H634.367L632.914 86.8575L631.467 90.8478Z" fill="black"/>
<path d="M169.99 80V71.4688H172.779C173.705 71.4688 174.4 71.6602 174.865 72.043C175.334 72.4258 175.568 72.9922 175.568 73.7422C175.568 74.1406 175.455 74.4941 175.229 74.8027C175.002 75.1074 174.693 75.3438 174.303 75.5117C174.764 75.6406 175.127 75.8867 175.393 76.25C175.662 76.6094 175.797 77.0391 175.797 77.5391C175.797 78.3047 175.549 78.9062 175.053 79.3438C174.557 79.7812 173.855 80 172.949 80H169.99ZM171.115 76.0098V79.0801H172.973C173.496 79.0801 173.908 78.9453 174.209 78.6758C174.514 78.4023 174.666 78.0273 174.666 77.5508C174.666 76.5234 174.107 76.0098 172.99 76.0098H171.115ZM171.115 75.1074H172.814C173.307 75.1074 173.699 74.9844 173.992 74.7383C174.289 74.4922 174.438 74.1582 174.438 73.7363C174.438 73.2676 174.301 72.9277 174.027 72.7168C173.754 72.502 173.338 72.3945 172.779 72.3945H171.115V75.1074Z" fill="black"/>
<path d="M459.99 100.597V92.066H462.779C463.705 92.066 464.4 92.2574 464.865 92.6403C465.334 93.0231 465.568 93.5895 465.568 94.3395C465.568 94.7379 465.455 95.0914 465.229 95.4C465.002 95.7047 464.693 95.941 464.303 96.109C464.764 96.2379 465.127 96.484 465.393 96.8473C465.662 97.2067 465.797 97.6364 465.797 98.1364C465.797 98.902 465.549 99.5035 465.053 99.941C464.557 100.379 463.855 100.597 462.949 100.597H459.99ZM461.115 96.6071V99.6774H462.973C463.496 99.6774 463.908 99.5426 464.209 99.2731C464.514 98.9996 464.666 98.6246 464.666 98.1481C464.666 97.1207 464.107 96.6071 462.99 96.6071H461.115ZM461.115 95.7047H462.814C463.307 95.7047 463.699 95.5817 463.992 95.3356C464.289 95.0895 464.438 94.7555 464.438 94.3336C464.438 93.8649 464.301 93.525 464.027 93.3141C463.754 93.0992 463.338 92.9918 462.779 92.9918H461.115V95.7047Z" fill="black"/>
<path d="M757.99 93.0001V84.4689H760.779C761.705 84.4689 762.4 84.6603 762.865 85.0431C763.334 85.4259 763.568 85.9923 763.568 86.7423C763.568 87.1407 763.455 87.4943 763.229 87.8029C763.002 88.1075 762.693 88.3439 762.303 88.5118C762.764 88.6407 763.127 88.8868 763.393 89.2501C763.662 89.6095 763.797 90.0392 763.797 90.5392C763.797 91.3048 763.549 91.9064 763.053 92.3439C762.557 92.7814 761.855 93.0001 760.949 93.0001H757.99ZM759.115 89.0099V92.0802H760.973C761.496 92.0802 761.908 91.9454 762.209 91.6759C762.514 91.4025 762.666 91.0275 762.666 90.5509C762.666 89.5236 762.107 89.0099 760.99 89.0099H759.115ZM759.115 88.1075H760.814C761.307 88.1075 761.699 87.9845 761.992 87.7384C762.289 87.4923 762.438 87.1583 762.438 86.7365C762.438 86.2677 762.301 85.9279 762.027 85.7169C761.754 85.5021 761.338 85.3947 760.779 85.3947H759.115V88.1075Z" fill="black"/>
<path d="M166.701 296.773H163.127L162.324 299H161.164L164.422 290.469H165.406L168.67 299H167.516L166.701 296.773ZM163.467 295.848H166.367L164.914 291.857L163.467 295.848ZM172.754 294.424H175.133V295.449H172.754V298.145H171.664V295.449H169.285V294.424H171.664V291.934H172.754V294.424ZM176.627 299V290.469H179.416C180.342 290.469 181.037 290.66 181.502 291.043C181.971 291.426 182.205 291.992 182.205 292.742C182.205 293.141 182.092 293.494 181.865 293.803C181.639 294.107 181.33 294.344 180.939 294.512C181.4 294.641 181.764 294.887 182.029 295.25C182.299 295.609 182.434 296.039 182.434 296.539C182.434 297.305 182.186 297.906 181.689 298.344C181.193 298.781 180.492 299 179.586 299H176.627ZM177.752 295.01V298.08H179.609C180.133 298.08 180.545 297.945 180.846 297.676C181.15 297.402 181.303 297.027 181.303 296.551C181.303 295.523 180.744 295.01 179.627 295.01H177.752ZM177.752 294.107H179.451C179.943 294.107 180.336 293.984 180.629 293.738C180.926 293.492 181.074 293.158 181.074 292.736C181.074 292.268 180.938 291.928 180.664 291.717C180.391 291.502 179.975 291.395 179.416 291.395H177.752V294.107Z" fill="black"/>
<path d="M464.701 305.23H461.127L460.324 307.456H459.164L462.422 298.925H463.406L466.67 307.456H465.516L464.701 305.23ZM461.467 304.304H464.367L462.914 300.314L461.467 304.304ZM470.754 302.88H473.133V303.905H470.754V306.601H469.664V303.905H467.285V302.88H469.664V300.39H470.754V302.88ZM474.627 307.456V298.925H477.416C478.342 298.925 479.037 299.116 479.502 299.499C479.971 299.882 480.205 300.448 480.205 301.198C480.205 301.597 480.092 301.95 479.865 302.259C479.639 302.564 479.33 302.8 478.939 302.968C479.4 303.097 479.764 303.343 480.029 303.706C480.299 304.066 480.434 304.495 480.434 304.995C480.434 305.761 480.186 306.362 479.689 306.8C479.193 307.237 478.492 307.456 477.586 307.456H474.627ZM475.752 303.466V306.536H477.609C478.133 306.536 478.545 306.401 478.846 306.132C479.15 305.859 479.303 305.484 479.303 305.007C479.303 303.98 478.744 303.466 477.627 303.466H475.752ZM475.752 302.564H477.451C477.943 302.564 478.336 302.441 478.629 302.194C478.926 301.948 479.074 301.614 479.074 301.193C479.074 300.724 478.938 300.384 478.664 300.173C478.391 299.958 477.975 299.851 477.416 299.851H475.752V302.564Z" fill="black"/>
<path d="M752.701 305.774H749.127L748.324 308H747.164L750.422 299.469H751.406L754.67 308H753.516L752.701 305.774ZM749.467 304.848H752.367L750.914 300.858L749.467 304.848ZM758.754 303.424H761.133V304.449H758.754V307.145H757.664V304.449H755.285V303.424H757.664V300.934H758.754V303.424ZM762.627 308V299.469H765.416C766.342 299.469 767.037 299.66 767.502 300.043C767.971 300.426 768.205 300.992 768.205 301.742C768.205 302.141 768.092 302.494 767.865 302.803C767.639 303.108 767.33 303.344 766.939 303.512C767.4 303.641 767.764 303.887 768.029 304.25C768.299 304.609 768.434 305.039 768.434 305.539C768.434 306.305 768.186 306.906 767.689 307.344C767.193 307.781 766.492 308 765.586 308H762.627ZM763.752 304.01V307.08H765.609C766.133 307.08 766.545 306.945 766.846 306.676C767.15 306.402 767.303 306.027 767.303 305.551C767.303 304.524 766.744 304.01 765.627 304.01H763.752ZM763.752 303.108H765.451C765.943 303.108 766.336 302.984 766.629 302.738C766.926 302.492 767.074 302.158 767.074 301.736C767.074 301.268 766.938 300.928 766.664 300.717C766.391 300.502 765.975 300.395 765.416 300.395H763.752V303.108Z" fill="black"/>
<path fill-rule="evenodd" clip-rule="evenodd" d="M831.73 186.234C843.883 193.332 852.714 204.973 856.275 218.59L873.275 283.59C874.42 287.968 875 292.475 875 297V347C875 371.006 858.864 392.015 835.671 398.207L725.171 427.707C711.433 431.374 696.798 429.368 684.554 422.139C672.31 414.91 663.484 403.064 660.06 389.264L643.56 322.764C642.524 318.588 642 314.302 642 310V261C642 236.933 658.217 215.887 681.489 209.751L791.489 180.751C805.098 177.163 819.576 179.136 831.73 186.234Z" stroke="#EE2626" stroke-width="2" stroke-linejoin="round"/>
</svg>
